<svg width="218" height="32" viewBox="0 0 218 32" fill="none" xmlns="http://www.w3.org/2000/svg">
<path d="M10.8177 10.2761C13.8262 10.2761 16.3342 11.8223 17.5022 13.4933V10.6935H22.0972V31.5816H18.9765C18.1624 31.5816 17.5022 30.9226 17.5022 30.1075V28.7846C16.3342 30.4542 13.8262 31.9992 10.8177 31.9992C5.0962 31.9992 0.75 27.1125 0.75 21.1383C0.75 15.164 5.0962 10.2761 10.8177 10.2761ZM11.6536 14.4544C7.93492 14.4544 5.42802 17.378 5.42802 21.1383C5.42802 24.8973 7.93492 27.8228 11.6536 27.8228C15.3712 27.8228 17.8793 24.8973 17.8793 21.1383C17.8793 17.378 15.3714 14.4544 11.6536 14.4544Z" fill="black"/>
<path d="M27.3158 10.6938H31.912V13.5343C33.1641 11.4462 35.5465 10.2764 38.2621 10.2764C43.1073 10.2764 46.2415 13.702 46.2415 19.0079V31.5812H43.1196C42.3057 31.5812 41.6453 30.921 41.6453 30.1071V19.7599C41.6453 16.46 39.9734 14.4547 37.3016 14.4547C34.2517 14.4547 31.9122 16.8359 31.9122 21.305V31.5812H28.789C27.9762 31.5812 27.3158 30.921 27.3158 30.1071V10.6938Z" fill="black"/>
<path d="M59.9453 10.2762C62.9526 10.2762 65.4606 11.8224 66.6298 13.4934V0.250732H71.2236V31.5817H68.1029C67.2902 31.5817 66.6298 30.9227 66.6298 30.1076V28.7847C65.4606 30.4543 62.9526 31.9993 59.9453 31.9993C54.2212 31.9993 49.8766 27.1126 49.8766 21.1384C49.8766 15.1641 54.2215 10.2762 59.9453 10.2762ZM60.7814 14.4545C57.0639 14.4545 54.557 17.3781 54.557 21.1384C54.557 24.8974 57.0639 27.8229 60.7814 27.8229C64.4976 27.8229 67.0045 24.8974 67.0045 21.1384C67.0045 17.3781 64.4976 14.4545 60.7814 14.4545Z" fill="black"/>
<path d="M76.4424 10.6945H81.0375V14.4126C81.8307 12.0313 84.1704 10.4858 86.5526 10.4858C87.136 10.4858 87.7229 10.528 88.3492 10.653V15.3733C87.5534 15.1224 86.8872 14.9974 86.0524 14.9974C83.4198 14.9974 81.0377 17.2126 81.0377 21.3899V31.5819H77.9158C77.1031 31.5819 76.4427 30.9218 76.4427 30.1078V10.6945H76.4424Z" fill="black"/>
<path d="M100.74 31.9992C94.5586 31.9992 89.7952 27.1941 89.7952 21.1394C89.7952 15.0817 94.5586 10.2761 100.74 10.2761C106.924 10.2761 111.685 15.0805 111.685 21.1394C111.685 27.1941 106.924 31.9992 100.74 31.9992ZM100.74 27.7398C104.416 27.7398 107.007 24.8558 107.007 21.1394C107.007 17.4221 104.416 14.5381 100.74 14.5381C97.0228 14.5381 94.4329 17.4221 94.4329 21.1394C94.4329 24.8558 97.0228 27.7398 100.74 27.7398Z" fill="black"/>
<path d="M117.707 6.14145C116.036 6.14145 114.615 4.7643 114.615 3.04952C114.615 1.37856 116.036 0.000244141 117.707 0.000244141C119.419 0.000244141 120.756 1.37879 120.756 3.04952C120.756 4.7643 119.419 6.14145 117.707 6.14145ZM115.411 10.6938H120.005V31.5819H116.884C116.07 31.5819 115.411 30.9203 115.411 30.1078V10.6938Z" fill="black"/>
<path d="M133.848 10.2762C136.857 10.2762 139.364 11.8224 140.534 13.4934V0.250732H145.129V31.5817H142.008C141.193 31.5817 140.534 30.9227 140.534 30.1076V28.7847C139.364 30.4543 136.857 31.9993 133.848 31.9993C128.127 31.9993 123.782 27.1126 123.782 21.1384C123.782 15.1641 128.127 10.2762 133.848 10.2762ZM134.685 14.4545C130.968 14.4545 128.462 17.3781 128.462 21.1384C128.462 24.8974 130.968 27.8229 134.685 27.8229C138.403 27.8229 140.91 24.8974 140.91 21.1384C140.91 17.3781 138.403 14.4545 134.685 14.4545Z" fill="black"/>
<path d="M153.12 13.3522H148.623V10.5804H153.12V4.73999H156.06V10.5804H162.194V13.3522H156.06V25.4938C156.06 28.0557 157.195 29.0637 159.546 29.0637C160.386 29.0637 161.521 28.8953 162.194 28.6025V31.2485C161.226 31.6269 160.219 31.795 159.084 31.795C155.514 31.795 153.12 29.735 153.12 25.744V13.3522Z" fill="black"/>
<path d="M186.097 10.5789L176.267 31.5843H173.957L164.126 10.5789H167.403L175.091 27.2566L182.778 10.5789H186.097Z" fill="black"/>
<path d="M203.182 2.18237V31.9999H198.581V6.74557H193.915V2.18237H203.182Z" fill="black"/>
<path d="M217.34 2.18237V31.9999H212.738V6.74557H208.072V2.18237H217.34Z" fill="black"/>
</svg>
