<svg width="174" height="48" viewBox="0 0 174 48" fill="none" xmlns="http://www.w3.org/2000/svg">
<path d="M8.41807 16.2212C10.8248 16.2212 12.8313 17.4582 13.7657 18.7949V16.5551H17.4417V33.2656H14.9452C14.2938 33.2656 13.7657 32.7384 13.7657 32.0864V31.028C12.8313 32.3637 10.8248 33.5997 8.41807 33.5997C3.84086 33.5997 0.363892 29.6903 0.363892 24.9109C0.363892 20.1315 3.84086 16.2212 8.41807 16.2212ZM9.08683 19.5639C6.11184 19.5639 4.10632 21.9027 4.10632 24.9109C4.10632 27.9182 6.11184 30.2585 9.08683 30.2585C12.0609 30.2585 14.0673 27.9182 14.0673 24.9109C14.0673 21.9027 12.0611 19.5639 9.08683 19.5639Z" fill="#77C159"/>
<path d="M21.6168 16.5556H25.2938V18.8281C26.2955 17.1576 28.2014 16.2217 30.3739 16.2217C34.2501 16.2217 36.7574 18.9622 36.7574 23.207V33.2656H34.2599C33.6088 33.2656 33.0804 32.7374 33.0804 32.0863V23.8086C33.0804 21.1686 31.7429 19.5643 29.6055 19.5643C27.1655 19.5643 25.294 21.4693 25.294 25.0446V33.2656H22.7954C22.1451 33.2656 21.6168 32.7374 21.6168 32.0863V16.5556Z" fill="#77C159"/>
<path d="M47.7206 16.2216C50.1264 16.2216 52.1329 17.4586 53.0682 18.7953V8.20117H56.7433V33.266H54.2467C53.5965 33.266 53.0682 32.7388 53.0682 32.0868V31.0284C52.1329 32.3641 50.1264 33.6001 47.7206 33.6001C43.1413 33.6001 39.6656 29.6907 39.6656 24.9113C39.6656 20.1319 43.1415 16.2216 47.7206 16.2216ZM48.3895 19.5642C45.4155 19.5642 43.4099 21.9031 43.4099 24.9113C43.4099 27.9186 45.4155 30.2589 48.3895 30.2589C51.3625 30.2589 53.368 27.9186 53.368 24.9113C53.368 21.9031 51.3625 19.5642 48.3895 19.5642Z" fill="#77C159"/>
<path d="M60.9186 16.5559H64.5946V19.5303C65.2292 17.6253 67.101 16.3889 69.0067 16.3889C69.4734 16.3889 69.943 16.4227 70.444 16.5227V20.2989C69.8074 20.0981 69.2744 19.9981 68.6066 19.9981C66.5005 19.9981 64.5948 21.7703 64.5948 25.1122V33.2658H62.0973C61.4471 33.2658 60.9188 32.7377 60.9188 32.0866V16.5559H60.9186Z" fill="#77C159"/>
<path d="M80.3562 33.5995C75.4109 33.5995 71.6002 29.7554 71.6002 24.9116C71.6002 20.0654 75.4109 16.2209 80.3562 16.2209C85.3035 16.2209 89.1123 20.0645 89.1123 24.9116C89.1123 29.7554 85.3035 33.5995 80.3562 33.5995ZM80.3562 30.1919C83.2972 30.1919 85.3699 27.8847 85.3699 24.9116C85.3699 21.9377 83.297 19.6306 80.3562 19.6306C77.3823 19.6306 75.3104 21.9377 75.3104 24.9116C75.3104 27.8847 77.3823 30.1919 80.3562 30.1919Z" fill="#77C159"/>
<path d="M93.9289 12.9135C92.5923 12.9135 91.4557 11.8117 91.4557 10.4399C91.4557 9.10315 92.5923 8.00049 93.9289 8.00049C95.2987 8.00049 96.3687 9.10333 96.3687 10.4399C96.3687 11.8117 95.2987 12.9135 93.9289 12.9135ZM92.0922 16.5554H95.7673V33.2659H93.2707C92.6194 33.2659 92.0922 32.7366 92.0922 32.0866V16.5554Z" fill="#77C159"/>
<path d="M106.843 16.2216C109.25 16.2216 111.255 17.4586 112.191 18.7953V8.20117H115.867V33.266H113.371C112.718 33.266 112.191 32.7388 112.191 32.0868V31.0284C111.255 32.3641 109.25 33.6001 106.843 33.6001C102.266 33.6001 98.7897 29.6907 98.7897 24.9113C98.7897 20.1319 102.266 16.2216 106.843 16.2216ZM107.512 19.5642C104.539 19.5642 102.533 21.9031 102.533 24.9113C102.533 27.9186 104.539 30.2589 107.512 30.2589C110.487 30.2589 112.492 27.9186 112.492 24.9113C112.492 21.9031 110.487 19.5642 107.512 19.5642Z" fill="#77C159"/>
<path d="M122.26 18.6822H118.663V16.4649H122.26V11.7925H124.612V16.4649H129.519V18.6822H124.612V28.3956C124.612 30.4451 125.52 31.2515 127.401 31.2515C128.073 31.2515 128.981 31.1168 129.519 30.8825V32.9993C128.745 33.3021 127.939 33.4366 127.031 33.4366C124.175 33.4366 122.26 31.7885 122.26 28.5958V18.6822Z" fill="#868686"/>
<path d="M148.642 16.4634L140.778 33.2678H138.93L131.065 16.4634H133.687L139.837 29.8056L145.987 16.4634H148.642Z" fill="#868686"/>
<path d="M162.311 9.74609V33.6002H158.63V13.3967H154.897V9.74609H162.311Z" fill="#868686"/>
<path d="M173.636 9.74609V33.6002H169.955V13.3967H166.222V9.74609H173.636Z" fill="#868686"/>
</svg>
