<svg width="164" height="40" viewBox="0 0 164 40" fill="none" xmlns="http://www.w3.org/2000/svg">
<g clip-path="url(#clip0_644_46)">
<path fill-rule="evenodd" clip-rule="evenodd" d="M15.0612 0.0723877C-0.365321 0.0723877 0.846598 20.3455 0.846598 20.3455C0.846598 20.3455 -0.365337 39.6866 14.3385 39.9196C31.4426 40.3856 29.765 21.0446 29.765 21.0446C29.765 21.0446 31.9319 0.0723877 15.0612 0.0723877ZM17.3447 19.8794L24.219 26.87L13.8492 37.356V23.8405L8.3032 29.2L6.13635 27.1029L13.2432 20.1124L6.13635 12.8884L8.18692 10.7913L13.8492 16.3839V2.86834L24.1023 13.1214L17.3447 19.8794ZM20.1176 13.1214L16.7387 9.8593V16.3839L20.1176 13.1214ZM16.8787 30.3654L20.0012 26.87L16.7387 23.6075L16.8787 30.3654Z" fill="black"/>
<path d="M36.3129 4.73279H44.9349C48.4067 4.73279 50.7604 6.59682 50.7604 11.9564C50.7604 14.9858 49.8749 16.8499 48.2904 18.2479C50.5042 19.1804 51.646 21.9765 51.646 25.4719C51.646 31.5305 48.4769 34.0936 45.1912 34.0936H36.3129V4.73279ZM40.3442 16.6169H44.422C45.8204 16.6169 46.8687 15.6849 46.8687 13.1214C46.8687 10.3253 45.5405 9.85931 44.0959 9.85931H40.3442V16.6169ZM40.3442 28.967H44.655C46.2399 28.967 47.6147 28.268 47.6147 25.2389C47.6147 22.2095 46.426 21.0444 44.7251 21.0444H40.3442V28.967Z" fill="black"/>
<path fill-rule="evenodd" clip-rule="evenodd" d="M57.5669 4.73279V34.0936H53.9271V4.73279H57.5669Z" fill="black"/>
<path d="M73.2938 34.0936H69.8216V31.0645H69.7518C68.8198 33.3946 67.2352 34.56 65.6972 34.56C61.8292 34.56 60.8503 31.0645 60.8503 25.9379V12.8884H64.5089V24.7729C64.5089 28.268 65.1378 30.1325 66.839 30.1325C68.7965 30.1325 69.6588 28.268 69.6588 24.0735V12.8884H73.2938V34.0936Z" fill="black"/>
<path d="M79.7486 24.773C79.8653 28.5011 80.9838 30.1325 83.0111 30.1325C84.4789 30.1325 85.6439 28.7341 85.8773 27.5691H89.0697C88.0442 32.4626 85.8773 34.56 82.8711 34.56C78.6999 34.56 76.1135 30.1325 76.1135 23.3745C76.1135 17.083 78.8631 12.4225 82.8711 12.4225C87.3917 12.4225 89.5589 18.248 89.3027 24.773H79.7486ZM85.6676 21.2775C85.3411 18.248 84.5491 16.617 82.7781 16.617C80.4709 16.617 79.7951 19.6465 79.7486 21.2775H85.6676Z" fill="black"/>
<path d="M97.482 12.8885H100.138V16.85H97.482V27.3361C97.482 29.2001 97.7847 29.6665 99.0199 29.6665C99.3925 29.6665 99.7422 29.6665 100.138 29.4335V34.0936C99.5325 34.327 98.7401 34.327 98.0178 34.327C95.7807 34.327 93.8232 33.3946 93.8232 29.2001V16.85H91.6328V12.8885H93.8232V6.59692H97.482V12.8885Z" fill="black"/>
<path d="M109.016 12.4225C113.188 12.4225 115.867 16.617 115.867 23.3745C115.867 30.1325 113.188 34.56 109.016 34.56C104.869 34.56 102.166 30.1325 102.166 23.3745C102.166 16.617 104.869 12.4225 109.016 12.4225ZM109.016 30.1325C111.486 30.1325 112.232 26.87 112.232 23.3745C112.232 20.1125 111.486 16.617 109.016 16.617C106.546 16.617 105.801 20.1125 105.801 23.3745C105.801 26.87 106.546 30.1325 109.016 30.1325Z" fill="black"/>
<path d="M124.536 12.4225C128.707 12.4225 131.387 16.617 131.387 23.3745C131.387 30.1325 128.707 34.56 124.536 34.56C120.365 34.56 117.685 30.1325 117.685 23.3745C117.685 16.617 120.365 12.4225 124.536 12.4225ZM124.536 30.1325C127.006 30.1325 127.751 26.87 127.751 23.3745C127.751 20.1125 127.006 16.617 124.536 16.617C122.066 16.617 121.32 20.1125 121.32 23.3745C121.32 26.87 122.066 30.1325 124.536 30.1325Z" fill="black"/>
<path d="M138.937 12.8885H141.593V16.85H138.937V27.3361C138.937 29.2001 139.24 29.6665 140.451 29.6665C140.847 29.6665 141.197 29.6665 141.593 29.4335V34.0936C140.964 34.327 140.172 34.327 139.473 34.327C137.236 34.327 135.278 33.3946 135.278 29.2001V16.85H133.088V12.8885H135.278V6.59692H138.937V12.8885Z" fill="black"/>
<path d="M145.159 4.73279H148.794V15.9179H148.864C149.796 13.3544 151.38 12.4224 152.732 12.4224C156.6 12.4224 157.579 15.6849 157.579 21.0444V34.0936H153.944V21.9764C153.944 18.4809 153.291 16.8499 151.613 16.8499C149.633 16.8499 148.794 18.7139 148.794 22.9084V34.0936H145.159V4.73279Z" fill="black"/>
</g>
<defs>
<clipPath id="clip0_644_46">
<rect width="162.514" height="40" fill="white" transform="translate(0.75)"/>
</clipPath>
</defs>
</svg>
