<svg width="130" height="48" viewBox="0 0 130 48" fill="none" xmlns="http://www.w3.org/2000/svg">
<g clip-path="url(#clip0_651_150)">
<path fill-rule="evenodd" clip-rule="evenodd" d="M11.4425 8.05811C-0.898729 8.05811 0.070809 24.2766 0.070809 24.2766C0.070809 24.2766 -0.898742 39.7496 10.8644 39.936C24.5477 40.3088 23.2056 24.8359 23.2056 24.8359C23.2056 24.8359 24.9391 8.05811 11.4425 8.05811ZM13.2694 23.9037L18.7688 29.4962L10.4729 37.8851V27.0726L6.03611 31.3603L4.30263 29.6826L9.98815 24.0901L4.30263 18.3109L5.94308 16.6333L10.4729 21.1073V10.2949L18.6754 18.4973L13.2694 23.9037ZM15.4876 18.4973L12.7846 15.8877V21.1073L15.4876 18.4973ZM12.8965 32.2926L15.3946 29.4962L12.7846 26.8862L12.8965 32.2926Z" fill="#0071BB"/>
<path d="M28.444 11.7866H35.3416C38.1191 11.7866 40.0021 13.2779 40.0021 17.5655C40.0021 19.9891 39.2936 21.4803 38.026 22.5988C39.797 23.3447 40.7105 25.5816 40.7105 28.378C40.7105 33.2248 38.1752 35.2753 35.5466 35.2753H28.444V11.7866ZM31.669 21.294H34.9313C36.05 21.294 36.8887 20.5483 36.8887 18.4975C36.8887 16.2607 35.8261 15.8879 34.6704 15.8879H31.669V21.294ZM31.669 31.1741H35.1177C36.3856 31.1741 37.4854 30.6148 37.4854 28.1916C37.4854 25.768 36.5345 24.836 35.1738 24.836H31.669V31.1741Z" fill="black"/>
<path fill-rule="evenodd" clip-rule="evenodd" d="M45.4476 11.7866V35.2753H42.5358V11.7866H45.4476Z" fill="black"/>
<path d="M58.0287 35.275H55.2509V32.8517H55.1951C54.4495 34.7157 53.1818 35.6481 51.9514 35.6481C48.857 35.6481 48.0739 32.8517 48.0739 28.7504V18.3108H51.0008V27.8184C51.0008 30.6145 51.5039 32.1061 52.8649 32.1061C54.4309 32.1061 55.1207 30.6145 55.1207 27.2589V18.3108H58.0287V35.275Z" fill="black"/>
<path d="M63.1929 27.8189C63.2862 30.8014 64.1811 32.1066 65.8029 32.1066C66.9771 32.1066 67.9091 30.9878 68.0958 30.0558H70.6497C69.8294 33.9706 68.0959 35.6486 65.6909 35.6486C62.3539 35.6486 60.2848 32.1065 60.2848 26.7002C60.2848 21.6669 62.4844 17.9385 65.6909 17.9385C69.3073 17.9385 71.0411 22.5989 70.8361 27.8189H63.1929ZM67.9281 25.0225C67.6669 22.5989 67.0333 21.2941 65.6165 21.2941C63.7707 21.2941 63.2301 23.7177 63.1929 25.0225H67.9281Z" fill="black"/>
<path d="M77.3792 18.3116H79.5044V21.4808H77.3792V29.8697C77.3792 31.3609 77.6214 31.734 78.6096 31.734C78.9076 31.734 79.1874 31.734 79.5044 31.5476V35.2758C79.0196 35.4625 78.3857 35.4625 77.8079 35.4625C76.0182 35.4625 74.4522 34.7165 74.4522 31.3609V21.4808H72.6998V18.3116H74.4522V13.2783H77.3792V18.3116Z" fill="black"/>
<path d="M86.6066 17.9385C89.9436 17.9385 92.0874 21.2941 92.0874 26.7002C92.0874 32.1065 89.9436 35.6486 86.6066 35.6486C83.2885 35.6486 81.1261 32.1065 81.1261 26.7002C81.1261 21.2941 83.2885 17.9385 86.6066 17.9385ZM86.6066 32.1066C88.5826 32.1066 89.1794 29.4965 89.1794 26.7002C89.1794 24.0905 88.5826 21.2941 86.6066 21.2941C84.6306 21.2941 84.0341 24.0905 84.0341 26.7002C84.0341 29.4965 84.6306 32.1066 86.6066 32.1066Z" fill="black"/>
<path d="M99.0229 17.9382C102.36 17.9382 104.504 21.2938 104.504 26.6999C104.504 32.1063 102.36 35.6483 99.0229 35.6483C95.6859 35.6483 93.5421 32.1063 93.5421 26.6999C93.5421 21.2938 95.6859 17.9382 99.0229 17.9382ZM99.0229 32.1063C100.999 32.1063 101.595 29.4963 101.595 26.6999C101.595 24.0902 100.999 21.2938 99.0229 21.2938C97.0469 21.2938 96.4505 24.0902 96.4505 26.6999C96.4505 29.4963 97.0469 32.1063 99.0229 32.1063Z" fill="black"/>
<path d="M110.544 18.3116H112.669V21.4808H110.544V29.8697C110.544 31.3609 110.786 31.734 111.755 31.734C112.072 31.734 112.352 31.734 112.669 31.5476V35.2758C112.166 35.4625 111.532 35.4625 110.972 35.4625C109.183 35.4625 107.617 34.7165 107.617 31.3609V21.4808H105.864V18.3116H107.617V13.2783H110.544V18.3116Z" fill="black"/>
<path d="M115.521 11.7866H118.429V20.7347H118.485C119.231 18.6839 120.499 17.9383 121.58 17.9383C124.674 17.9383 125.457 20.5483 125.457 24.836V35.2753H122.549V25.5816C122.549 22.7852 122.027 21.4803 120.685 21.4803C119.1 21.4803 118.429 22.9716 118.429 26.3272V35.2753H115.521V11.7866Z" fill="black"/>
</g>
<defs>
<clipPath id="clip0_651_150">
<rect width="130.012" height="32.0001" fill="white" transform="translate(-0.00598145 8.00024)"/>
</clipPath>
</defs>
</svg>
