<svg width="311" height="42" viewBox="0 0 311 42" fill="none" xmlns="http://www.w3.org/2000/svg">
<g clip-path="url(#clip0_644_20)">
<path fill-rule="evenodd" clip-rule="evenodd" d="M42.9703 14.499C44.6756 14.499 46.0596 13.1071 46.0596 11.3921C46.0596 9.67707 44.6756 8.28516 42.9703 8.28516C41.265 8.28516 39.881 9.67707 39.881 11.3921C39.881 13.1071 41.265 14.499 42.9703 14.499Z" fill="black"/>
<path fill-rule="evenodd" clip-rule="evenodd" d="M33.7025 24.8555C37.1151 24.8555 39.881 22.0738 39.881 18.6416C39.881 15.2095 37.1151 12.4277 33.7025 12.4277C30.2898 12.4277 27.5239 15.2095 27.5239 18.6416C27.5239 22.0738 30.2898 24.8555 33.7025 24.8555Z" fill="black"/>
<path fill-rule="evenodd" clip-rule="evenodd" d="M33.7025 41.4261C37.6836 41.4261 40.9108 38.1804 40.9108 34.1765C40.9108 30.1727 37.6836 26.927 33.7025 26.927C29.7214 26.927 26.4941 30.1727 26.4941 34.1765C26.4941 38.1804 29.7214 41.4261 33.7025 41.4261Z" fill="black"/>
<path fill-rule="evenodd" clip-rule="evenodd" d="M25.4643 12.4278C25.4643 5.56558 19.9325 0 13.1072 0C6.2819 0 0.75 5.56558 0.75 12.4278C0.75 19.29 6.28189 24.8556 13.1072 24.8556C19.9325 24.8556 25.4643 19.29 25.4643 12.4278Z" fill="black"/>
<path d="M72.5589 34.2281C65.0988 34.2281 58.8265 28.1469 58.8265 20.679C58.825 13.211 65.0973 7.12988 72.5589 7.12988C76.6854 7.12988 79.6241 8.74976 81.8347 10.8639L79.2262 13.4751C77.6419 11.988 75.4961 10.8314 72.5574 10.8314C67.1104 10.8314 62.8513 15.2263 62.8513 20.679C62.8513 26.1317 67.1104 30.5266 72.5574 30.5266C76.09 30.5266 78.1032 29.1059 79.3912 27.8165C80.4479 26.7587 81.1406 25.2391 81.4044 23.1575H72.5589V19.4574H85.0047C85.1374 20.1184 85.2022 20.9121 85.2022 21.7707C85.2022 24.5472 84.4432 27.9832 81.9998 30.4292C79.6226 32.9062 76.5867 34.2281 72.5589 34.2281Z" fill="black"/>
<path d="M103.882 25.4442C103.882 30.4676 99.9545 34.1677 95.1338 34.1677C90.3147 34.1677 86.3856 30.4661 86.3856 25.4442C86.3856 20.3884 90.3147 16.7193 95.1338 16.7193C99.9545 16.7193 103.882 20.3884 103.882 25.4442ZM100.053 25.4442C100.053 22.3048 97.7748 20.1568 95.1338 20.1568C92.4929 20.1568 90.2144 22.3048 90.2144 25.4442C90.2144 28.5497 92.4929 30.7317 95.1338 30.7317C97.7748 30.7317 100.053 28.5497 100.053 25.4442Z" fill="black"/>
<path d="M122.893 25.4442C122.893 30.4676 118.966 34.1677 114.145 34.1677C109.326 34.1677 105.397 30.4661 105.397 25.4442C105.397 20.3884 109.326 16.7193 114.145 16.7193C118.966 16.7193 122.893 20.3884 122.893 25.4442ZM119.065 25.4442C119.065 22.3048 116.786 20.1568 114.145 20.1568C111.504 20.1568 109.226 22.3048 109.226 25.4442C109.226 28.5497 111.504 30.7317 114.145 30.7317C116.786 30.7317 119.065 28.5497 119.065 25.4442Z" fill="black"/>
<path d="M141.113 17.2637V32.9122C141.113 39.3563 137.317 42 132.828 42C128.603 42 126.061 39.1586 125.103 36.8453L128.436 35.4571C129.03 36.8778 130.483 38.5626 132.827 38.5626C135.699 38.5626 137.481 36.7775 137.481 33.4403V32.1849H137.349C136.492 33.2426 134.84 34.1677 132.76 34.1677C128.402 34.1677 124.408 30.3673 124.408 25.4767C124.408 20.5522 128.402 16.7193 132.76 16.7193C134.84 16.7193 136.49 17.6443 137.349 18.6697H137.481V17.2637H141.113ZM137.746 25.4767C137.746 22.4036 135.699 20.1568 133.092 20.1568C130.451 20.1568 128.239 22.4036 128.239 25.4767C128.239 28.5173 130.451 30.7317 133.092 30.7317C135.699 30.7317 137.746 28.5173 137.746 25.4767Z" fill="black"/>
<path d="M143.715 8.01514H147.543V33.6587H143.715V8.01514Z" fill="black"/>
<path d="M162.007 28.3181L164.978 30.3009C164.02 31.7216 161.709 34.1677 157.715 34.1677C152.763 34.1677 149.167 30.3348 149.167 25.4442C149.167 20.2556 152.796 16.7193 157.286 16.7193C161.809 16.7193 164.021 20.322 164.747 22.2709L165.143 23.2623L153.49 28.0865C154.382 29.8377 155.768 30.7302 157.715 30.7302C159.664 30.7302 161.016 29.7713 162.007 28.3181ZM152.862 25.1787L160.652 21.9404C160.224 20.8502 158.936 20.0904 157.418 20.0904C155.471 20.0889 152.763 21.8076 152.862 25.1787Z" fill="black"/>
<path d="M175.552 32.3399H172.594L181.15 9.03778H184.063L192.619 32.3399H189.661L182.697 12.7242H182.515L175.552 32.3399ZM176.644 23.2375H188.568V25.7407H176.644V23.2375Z" fill="black"/>
<path d="M208.264 18.7773L205.852 19.46C205.7 19.058 205.476 18.6673 205.18 18.2881C204.892 17.9012 204.498 17.5826 203.997 17.3323C203.496 17.082 202.855 16.9569 202.074 16.9569C201.004 16.9569 200.113 17.2034 199.4 17.6964C198.695 18.1819 198.342 18.8001 198.342 19.551C198.342 20.2185 198.585 20.7457 199.07 21.1326C199.556 21.5194 200.314 21.8418 201.346 22.0997L203.94 22.7369C205.503 23.1161 206.667 23.6964 207.433 24.4777C208.199 25.2514 208.582 26.2489 208.582 27.4701C208.582 28.4714 208.294 29.3664 207.717 30.1553C207.149 30.9442 206.352 31.5662 205.328 32.0213C204.304 32.4764 203.113 32.704 201.755 32.704C199.973 32.704 198.498 32.3171 197.329 31.5434C196.161 30.7697 195.422 29.6395 195.111 28.1528L197.659 27.5156C197.902 28.4562 198.361 29.1616 199.036 29.6319C199.719 30.1022 200.61 30.3374 201.71 30.3374C202.961 30.3374 203.955 30.0719 204.691 29.5409C205.434 29.0023 205.806 28.3576 205.806 27.6066C205.806 26.9998 205.594 26.4916 205.169 26.082C204.744 25.6648 204.092 25.3538 203.212 25.149L200.299 24.4663C198.699 24.0871 197.523 23.4992 196.772 22.7027C196.029 21.8987 195.657 20.8936 195.657 19.6876C195.657 18.7015 195.934 17.8292 196.487 17.0706C197.049 16.3121 197.811 15.7167 198.774 15.2843C199.745 14.8519 200.845 14.6358 202.074 14.6358C203.803 14.6358 205.161 15.015 206.147 15.7735C207.141 16.5321 207.846 17.5333 208.264 18.7773Z" fill="black"/>
<path d="M225.003 18.7773L222.591 19.46C222.44 19.058 222.216 18.6673 221.92 18.2881C221.632 17.9012 221.237 17.5826 220.737 17.3323C220.236 17.082 219.595 16.9569 218.814 16.9569C217.744 16.9569 216.853 17.2034 216.14 17.6964C215.435 18.1819 215.082 18.8001 215.082 19.551C215.082 20.2185 215.325 20.7457 215.81 21.1326C216.296 21.5194 217.054 21.8418 218.086 22.0997L220.68 22.7369C222.242 23.1161 223.407 23.6964 224.173 24.4777C224.939 25.2514 225.322 26.2489 225.322 27.4701C225.322 28.4714 225.034 29.3664 224.457 30.1553C223.888 30.9442 223.092 31.5662 222.068 32.0213C221.044 32.4764 219.853 32.704 218.495 32.704C216.713 32.704 215.237 32.3171 214.069 31.5434C212.901 30.7697 212.162 29.6395 211.851 28.1528L214.399 27.5156C214.642 28.4562 215.101 29.1616 215.776 29.6319C216.459 30.1022 217.35 30.3374 218.45 30.3374C219.701 30.3374 220.695 30.0719 221.431 29.5409C222.174 29.0023 222.546 28.3576 222.546 27.6066C222.546 26.9998 222.333 26.4916 221.909 26.082C221.484 25.6648 220.832 25.3538 219.952 25.149L217.039 24.4663C215.438 24.0871 214.263 23.4992 213.512 22.7027C212.768 21.8987 212.397 20.8936 212.397 19.6876C212.397 18.7015 212.674 17.8292 213.227 17.0706C213.789 16.3121 214.551 15.7167 215.514 15.2843C216.485 14.8519 217.585 14.6358 218.814 14.6358C220.543 14.6358 221.901 15.015 222.887 15.7735C223.881 16.5321 224.586 17.5333 225.003 18.7773Z" fill="black"/>
<path d="M229.364 32.3399V14.8633H232.049V32.3399H229.364ZM230.729 11.9505C230.206 11.9505 229.755 11.7723 229.375 11.4158C229.004 11.0593 228.818 10.6307 228.818 10.1301C228.818 9.62944 229.004 9.20087 229.375 8.84436C229.755 8.48785 230.206 8.30959 230.729 8.30959C231.253 8.30959 231.7 8.48785 232.072 8.84436C232.451 9.20087 232.641 9.62944 232.641 10.1301C232.641 10.6307 232.451 11.0593 232.072 11.4158C231.7 11.7723 231.253 11.9505 230.729 11.9505Z" fill="black"/>
<path d="M249.347 18.7773L246.935 19.46C246.783 19.058 246.559 18.6673 246.263 18.2881C245.975 17.9012 245.581 17.5826 245.08 17.3323C244.579 17.082 243.938 16.9569 243.157 16.9569C242.088 16.9569 241.196 17.2034 240.483 17.6964C239.778 18.1819 239.425 18.8001 239.425 19.551C239.425 20.2185 239.668 20.7457 240.153 21.1326C240.639 21.5194 241.397 21.8418 242.429 22.0997L245.023 22.7369C246.586 23.1161 247.75 23.6964 248.516 24.4777C249.282 25.2514 249.665 26.2489 249.665 27.4701C249.665 28.4714 249.377 29.3664 248.801 30.1553C248.232 30.9442 247.435 31.5662 246.411 32.0213C245.387 32.4764 244.196 32.704 242.838 32.704C241.056 32.704 239.581 32.3171 238.412 31.5434C237.244 30.7697 236.505 29.6395 236.194 28.1528L238.742 27.5156C238.985 28.4562 239.444 29.1616 240.119 29.6319C240.802 30.1022 241.693 30.3374 242.793 30.3374C244.045 30.3374 245.038 30.0719 245.774 29.5409C246.517 29.0023 246.889 28.3576 246.889 27.6066C246.889 26.9998 246.677 26.4916 246.252 26.082C245.827 25.6648 245.175 25.3538 244.295 25.149L241.382 24.4663C239.782 24.0871 238.606 23.4992 237.855 22.7027C237.112 21.8987 236.74 20.8936 236.74 19.6876C236.74 18.7015 237.017 17.8292 237.57 17.0706C238.132 16.3121 238.894 15.7167 239.857 15.2843C240.828 14.8519 241.928 14.6358 243.157 14.6358C244.886 14.6358 246.244 15.015 247.23 15.7735C248.224 16.5321 248.929 17.5333 249.347 18.7773Z" fill="black"/>
<path d="M261.308 14.8633V17.1389H252.251V14.8633H261.308ZM254.891 10.6762H257.576V27.3336C257.576 28.0921 257.686 28.661 257.906 29.0403C258.133 29.412 258.422 29.6623 258.77 29.7912C259.127 29.9126 259.502 29.9733 259.897 29.9733C260.193 29.9733 260.435 29.9581 260.625 29.9278C260.815 29.8898 260.966 29.8595 261.08 29.8367L261.626 32.2489C261.444 32.3171 261.19 32.3854 260.864 32.4537C260.538 32.5295 260.124 32.5674 259.624 32.5674C258.865 32.5674 258.122 32.4044 257.394 32.0782C256.673 31.752 256.074 31.2552 255.596 30.5877C255.126 29.9202 254.891 29.0782 254.891 28.0618V10.6762Z" fill="black"/>
<path d="M270.49 32.7495C269.382 32.7495 268.377 32.5409 267.475 32.1237C266.572 31.6989 265.855 31.0883 265.324 30.2919C264.793 29.4878 264.528 28.5169 264.528 27.3791C264.528 26.3778 264.725 25.5662 265.119 24.9442C265.514 24.3146 266.041 23.8216 266.701 23.4651C267.361 23.1086 268.089 22.8431 268.885 22.6686C269.69 22.4866 270.497 22.3424 271.309 22.2362C272.371 22.0997 273.232 21.9973 273.892 21.929C274.559 21.8532 275.045 21.728 275.348 21.5536C275.659 21.3791 275.815 21.0757 275.815 20.6433V20.5523C275.815 19.4297 275.507 18.5574 274.893 17.9354C274.286 17.3134 273.365 17.0024 272.128 17.0024C270.846 17.0024 269.841 17.283 269.113 17.8443C268.385 18.4057 267.873 19.0049 267.577 19.6421L265.028 18.7318C265.483 17.6699 266.09 16.8431 266.849 16.2514C267.615 15.6522 268.449 15.235 269.352 14.9998C270.262 14.7571 271.157 14.6358 272.037 14.6358C272.599 14.6358 273.243 14.704 273.971 14.8406C274.707 14.9695 275.416 15.2388 276.099 15.6484C276.789 16.058 277.362 16.6762 277.817 17.503C278.272 18.3298 278.5 19.4373 278.5 20.8254V32.3399H275.815V29.9733H275.678C275.496 30.3525 275.193 30.7583 274.768 31.1907C274.343 31.6231 273.778 31.991 273.073 32.2944C272.367 32.5978 271.506 32.7495 270.49 32.7495ZM270.899 30.3374C271.961 30.3374 272.856 30.1288 273.585 29.7116C274.32 29.2944 274.874 28.7558 275.246 28.0959C275.625 27.436 275.815 26.7419 275.815 26.0137V23.5561C275.701 23.6926 275.451 23.8178 275.064 23.9316C274.684 24.0378 274.245 24.1326 273.744 24.216C273.251 24.2919 272.769 24.3601 272.299 24.4208C271.836 24.4739 271.461 24.5194 271.172 24.5573C270.475 24.6484 269.822 24.7963 269.215 25.0011C268.616 25.1983 268.131 25.4979 267.759 25.9C267.395 26.2944 267.213 26.8329 267.213 27.5156C267.213 28.4486 267.558 29.1541 268.248 29.6319C268.946 30.1022 269.83 30.3374 270.899 30.3374Z" fill="black"/>
<path d="M286.086 21.8266V32.3399H283.401V14.8633H285.995V17.594H286.223C286.632 16.7065 287.254 15.9935 288.089 15.455C288.923 14.9088 290 14.6358 291.32 14.6358C292.503 14.6358 293.539 14.8785 294.426 15.3639C295.314 15.8418 296.004 16.57 296.497 17.5485C296.99 18.5194 297.237 19.7483 297.237 21.235V32.3399H294.551V21.417C294.551 20.0441 294.195 18.9746 293.482 18.2084C292.769 17.4347 291.79 17.0479 290.546 17.0479C289.689 17.0479 288.923 17.2337 288.248 17.6054C287.58 17.9771 287.053 18.5194 286.666 19.2325C286.28 19.9455 286.086 20.8102 286.086 21.8266Z" fill="black"/>
<path d="M309.744 14.8633V17.1389H300.687V14.8633H309.744ZM303.327 10.6762H306.012V27.3336C306.012 28.0921 306.122 28.661 306.342 29.0403C306.569 29.412 306.858 29.6623 307.207 29.7912C307.563 29.9126 307.939 29.9733 308.333 29.9733C308.629 29.9733 308.872 29.9581 309.061 29.9278C309.251 29.8898 309.402 29.8595 309.516 29.8367L310.062 32.2489C309.88 32.3171 309.626 32.3854 309.3 32.4537C308.974 32.5295 308.56 32.5674 308.06 32.5674C307.301 32.5674 306.558 32.4044 305.83 32.0782C305.109 31.752 304.51 31.2552 304.032 30.5877C303.562 29.9202 303.327 29.0782 303.327 28.0618V10.6762Z" fill="black"/>
</g>
<defs>
<clipPath id="clip0_644_20">
<rect width="309.312" height="42" fill="white" transform="translate(0.75)"/>
</clipPath>
</defs>
</svg>
