<svg width="248" height="48" viewBox="0 0 248 48" fill="none" xmlns="http://www.w3.org/2000/svg">
<g clip-path="url(#clip0_651_126)">
<path fill-rule="evenodd" clip-rule="evenodd" d="M34.0513 18.7988C35.4155 18.7988 36.5227 17.6852 36.5227 16.3132C36.5227 14.9412 35.4155 13.8276 34.0513 13.8276C32.687 13.8276 31.5798 14.9412 31.5798 16.3132C31.5798 17.6852 32.687 18.7988 34.0513 18.7988Z" fill="#34A853"/>
<path fill-rule="evenodd" clip-rule="evenodd" d="M26.6365 27.0843C29.3666 27.0843 31.5794 24.8589 31.5794 22.1132C31.5794 19.3675 29.3666 17.1421 26.6365 17.1421C23.9064 17.1421 21.6936 19.3675 21.6936 22.1132C21.6936 24.8589 23.9064 27.0843 26.6365 27.0843Z" fill="#EA4335"/>
<path fill-rule="evenodd" clip-rule="evenodd" d="M26.6371 40.3408C29.8219 40.3408 32.4038 37.7442 32.4038 34.5411C32.4038 31.338 29.8219 28.7415 26.6371 28.7415C23.4522 28.7415 20.8704 31.338 20.8704 34.5411C20.8704 37.7442 23.4522 40.3408 26.6371 40.3408Z" fill="#FBBC04"/>
<path fill-rule="evenodd" clip-rule="evenodd" d="M20.0462 17.1422C20.0462 11.6524 15.6207 7.19995 10.1604 7.19995C4.70019 7.19995 0.274658 11.6524 0.274658 17.1422C0.274658 22.632 4.70019 27.0845 10.1604 27.0845C15.6207 27.0845 20.0462 22.632 20.0462 17.1422Z" fill="#4285F4"/>
<path d="M57.7216 34.5824C51.7534 34.5824 46.7356 29.7175 46.7356 23.7431C46.7344 17.7688 51.7523 12.9038 57.7216 12.9038C61.0228 12.9038 63.3737 14.1997 65.1422 15.891L63.0554 17.98C61.788 16.7903 60.0713 15.865 57.7204 15.865C53.3628 15.865 49.9555 19.381 49.9555 23.7431C49.9555 28.1053 53.3628 31.6212 57.7204 31.6212C60.5465 31.6212 62.157 30.4847 63.1874 29.4531C64.0328 28.6069 64.5869 27.3912 64.798 25.7259H57.7216V22.7659H67.6783C67.7844 23.2946 67.8363 23.9296 67.8363 24.6165C67.8363 26.8377 67.2291 29.5865 65.2743 31.5433C63.3725 33.525 60.9438 34.5824 57.7216 34.5824Z" fill="#757575"/>
<path d="M82.7801 27.5553C82.7801 31.574 79.6381 34.5341 75.7816 34.5341C71.9262 34.5341 68.783 31.5729 68.783 27.5553C68.783 23.5106 71.9262 20.5754 75.7816 20.5754C79.6381 20.5754 82.7801 23.5106 82.7801 27.5553ZM79.7171 27.5553C79.7171 25.0438 77.8944 23.3253 75.7816 23.3253C73.6688 23.3253 71.846 25.0438 71.846 27.5553C71.846 30.0397 73.6688 31.7853 75.7816 31.7853C77.8944 31.7853 79.7171 30.0397 79.7171 27.5553Z" fill="#757575"/>
<path d="M97.9893 27.5553C97.9893 31.574 94.8473 34.5341 90.9907 34.5341C87.1354 34.5341 83.9922 31.5729 83.9922 27.5553C83.9922 23.5106 87.1354 20.5754 90.9907 20.5754C94.8473 20.5754 97.9893 23.5106 97.9893 27.5553ZM94.9263 27.5553C94.9263 25.0438 93.1035 23.3253 90.9907 23.3253C88.878 23.3253 87.0552 25.0438 87.0552 27.5553C87.0552 30.0397 88.878 31.7853 90.9907 31.7853C93.1035 31.7853 94.9263 30.0397 94.9263 27.5553Z" fill="#757575"/>
<path d="M112.565 21.0109V33.5297C112.565 38.685 109.528 40.8 105.937 40.8C102.557 40.8 100.523 38.5268 99.7566 36.6762L102.424 35.5656C102.899 36.7022 104.061 38.05 105.936 38.05C108.234 38.05 109.659 36.6219 109.659 33.9522V32.9478H109.554C108.868 33.7941 107.546 34.5341 105.883 34.5341C102.396 34.5341 99.2013 31.4938 99.2013 27.5813C99.2013 23.6417 102.396 20.5754 105.883 20.5754C107.546 20.5754 108.867 21.3154 109.554 22.1357H109.659V21.0109H112.565ZM109.871 27.5813C109.871 25.1229 108.234 23.3254 106.148 23.3254C104.035 23.3254 102.266 25.1229 102.266 27.5813C102.266 30.0138 104.035 31.7853 106.148 31.7853C108.234 31.7853 109.871 30.0138 109.871 27.5813Z" fill="#757575"/>
<path d="M114.646 13.612H117.709V34.1269H114.646V13.612Z" fill="#757575"/>
<path d="M129.28 29.8544L131.657 31.4407C130.891 32.5772 129.042 34.5341 125.847 34.5341C121.885 34.5341 119.009 31.4678 119.009 27.5553C119.009 23.4044 121.911 20.5754 125.504 20.5754C129.122 20.5754 130.892 23.4575 131.472 25.0166L131.789 25.8098L122.467 29.6691C123.18 31.0701 124.289 31.7841 125.847 31.7841C127.405 31.7841 128.488 31.017 129.28 29.8544ZM121.964 27.3429L128.197 24.7523C127.854 23.8801 126.823 23.2722 125.609 23.2722C124.051 23.2711 121.885 24.646 121.964 27.3429Z" fill="#757575"/>
<path d="M140.116 33.0719H137.75L144.595 14.4301H146.925L153.77 33.0719H151.403L145.833 17.3793H145.687L140.116 33.0719ZM140.99 25.7899H150.529V27.7925H140.99V25.7899Z" fill="#757575"/>
<path d="M166.286 22.2218L164.356 22.7679C164.235 22.4463 164.056 22.1338 163.819 21.8304C163.588 21.5209 163.273 21.266 162.872 21.0658C162.472 20.8655 161.959 20.7654 161.334 20.7654C160.478 20.7654 159.765 20.9626 159.195 21.3571C158.631 21.7454 158.348 22.24 158.348 22.8408C158.348 23.3748 158.543 23.7965 158.931 24.106C159.319 24.4155 159.926 24.6734 160.751 24.8797L162.827 25.3894C164.077 25.6928 165.008 26.1571 165.621 26.7821C166.234 27.4011 166.541 28.199 166.541 29.176C166.541 29.977 166.31 30.6931 165.849 31.3242C165.394 31.9553 164.756 32.4529 163.937 32.817C163.118 33.1811 162.165 33.3631 161.079 33.3631C159.653 33.3631 158.473 33.0537 157.538 32.4347C156.604 31.8157 156.012 30.9116 155.763 29.7222L157.802 29.2124C157.996 29.9649 158.364 30.5293 158.904 30.9055C159.45 31.2817 160.163 31.4698 161.043 31.4698C162.044 31.4698 162.839 31.2575 163.428 30.8327C164.022 30.4018 164.32 29.886 164.32 29.2853C164.32 28.7998 164.15 28.3932 163.81 28.0655C163.47 27.7318 162.948 27.483 162.244 27.3191L159.914 26.773C158.634 26.4696 157.693 25.9993 157.092 25.3621C156.498 24.7189 156.2 23.9148 156.2 22.95C156.2 22.1611 156.422 21.4633 156.865 20.8564C157.314 20.2496 157.924 19.7732 158.694 19.4274C159.471 19.0815 160.351 18.9085 161.334 18.9085C162.718 18.9085 163.804 19.2119 164.593 19.8188C165.388 20.4256 165.952 21.2266 166.286 22.2218Z" fill="#757575"/>
<path d="M179.678 22.2218L177.748 22.7679C177.627 22.4463 177.447 22.1338 177.211 21.8304C176.98 21.5209 176.665 21.266 176.264 21.0658C175.864 20.8655 175.351 20.7654 174.726 20.7654C173.87 20.7654 173.157 20.9626 172.587 21.3571C172.022 21.7454 171.74 22.24 171.74 22.8408C171.74 23.3748 171.934 23.7965 172.323 24.106C172.711 24.4155 173.318 24.6734 174.143 24.8797L176.219 25.3894C177.469 25.6928 178.4 26.1571 179.013 26.7821C179.626 27.4011 179.932 28.199 179.932 29.176C179.932 29.977 179.702 30.6931 179.241 31.3242C178.786 31.9553 178.148 32.4529 177.329 32.817C176.51 33.1811 175.557 33.3631 174.471 33.3631C173.045 33.3631 171.865 33.0537 170.93 32.4347C169.996 31.8157 169.404 30.9116 169.155 29.7222L171.194 29.2124C171.388 29.9649 171.755 30.5293 172.296 30.9055C172.842 31.2817 173.555 31.4698 174.435 31.4698C175.436 31.4698 176.231 31.2575 176.819 30.8327C177.414 30.4018 177.711 29.886 177.711 29.2853C177.711 28.7998 177.542 28.3932 177.202 28.0655C176.862 27.7318 176.34 27.483 175.636 27.3191L173.306 26.773C172.025 26.4696 171.085 25.9993 170.484 25.3621C169.889 24.7189 169.592 23.9148 169.592 22.95C169.592 22.1611 169.814 21.4633 170.257 20.8564C170.706 20.2496 171.315 19.7732 172.086 19.4274C172.863 19.0815 173.743 18.9085 174.726 18.9085C176.109 18.9085 177.196 19.2119 177.985 19.8188C178.779 20.4256 179.344 21.2266 179.678 22.2218Z" fill="#757575"/>
<path d="M183.166 33.0719V19.0906H185.314V33.0719H183.166ZM184.258 16.7604C183.84 16.7604 183.479 16.6177 183.175 16.3325C182.878 16.0473 182.729 15.7045 182.729 15.304C182.729 14.9035 182.878 14.5606 183.175 14.2754C183.479 13.9902 183.84 13.8476 184.258 13.8476C184.677 13.8476 185.035 13.9902 185.332 14.2754C185.636 14.5606 185.788 14.9035 185.788 15.304C185.788 15.7045 185.636 16.0473 185.332 16.3325C185.035 16.6177 184.677 16.7604 184.258 16.7604Z" fill="#757575"/>
<path d="M199.152 22.2218L197.222 22.7679C197.101 22.4463 196.922 22.1338 196.685 21.8304C196.455 21.5209 196.139 21.266 195.739 21.0658C195.338 20.8655 194.826 20.7654 194.2 20.7654C193.345 20.7654 192.632 20.9626 192.061 21.3571C191.497 21.7454 191.215 22.24 191.215 22.8408C191.215 23.3748 191.409 23.7965 191.797 24.106C192.186 24.4155 192.793 24.6734 193.618 24.8797L195.693 25.3894C196.943 25.6928 197.875 26.1571 198.488 26.7821C199.101 27.4011 199.407 28.199 199.407 29.176C199.407 29.977 199.176 30.6931 198.715 31.3242C198.26 31.9553 197.623 32.4529 196.804 32.817C195.985 33.1811 195.032 33.3631 193.946 33.3631C192.52 33.3631 191.339 33.0537 190.405 32.4347C189.47 31.8157 188.879 30.9116 188.63 29.7222L190.669 29.2124C190.863 29.9649 191.23 30.5293 191.77 30.9055C192.316 31.2817 193.029 31.4698 193.909 31.4698C194.91 31.4698 195.705 31.2575 196.294 30.8327C196.889 30.4018 197.186 29.886 197.186 29.2853C197.186 28.7998 197.016 28.3932 196.676 28.0655C196.337 27.7318 195.815 27.483 195.111 27.3191L192.781 26.773C191.5 26.4696 190.56 25.9993 189.959 25.3621C189.364 24.7189 189.067 23.9148 189.067 22.95C189.067 22.1611 189.288 21.4633 189.731 20.8564C190.18 20.2496 190.79 19.7732 191.561 19.4274C192.338 19.0815 193.217 18.9085 194.2 18.9085C195.584 18.9085 196.67 19.2119 197.459 19.8188C198.254 20.4256 198.818 21.2266 199.152 22.2218Z" fill="#757575"/>
<path d="M208.721 19.0906V20.911H201.476V19.0906H208.721ZM203.587 15.7409H205.736V29.0668C205.736 29.6736 205.824 30.1288 205.999 30.4322C206.182 30.7295 206.412 30.9298 206.691 31.0329C206.976 31.13 207.277 31.1786 207.592 31.1786C207.829 31.1786 208.023 31.1664 208.175 31.1422C208.327 31.1118 208.448 31.0875 208.539 31.0693L208.976 32.999C208.83 33.0537 208.627 33.1083 208.366 33.1629C208.105 33.2236 207.774 33.2539 207.374 33.2539C206.767 33.2539 206.172 33.1234 205.59 32.8625C205.013 32.6016 204.534 32.2041 204.152 31.6701C203.775 31.1361 203.587 30.4625 203.587 29.6494V15.7409Z" fill="#757575"/>
<path d="M216.067 33.3996C215.181 33.3996 214.377 33.2327 213.655 32.8989C212.932 32.5591 212.359 32.0706 211.934 31.4334C211.509 30.7902 211.297 30.0135 211.297 29.1032C211.297 28.3022 211.455 27.6529 211.77 27.1553C212.086 26.6516 212.508 26.2572 213.036 25.972C213.564 25.6868 214.146 25.4744 214.783 25.3348C215.427 25.1892 216.073 25.0739 216.722 24.9889C217.572 24.8797 218.26 24.7978 218.788 24.7432C219.322 24.6825 219.711 24.5824 219.953 24.4428C220.202 24.3032 220.327 24.0605 220.327 23.7146V23.6418C220.327 22.7437 220.081 22.0458 219.589 21.5482C219.104 21.0506 218.367 20.8018 217.377 20.8018C216.352 20.8018 215.548 21.0263 214.965 21.4754C214.383 21.9244 213.973 22.4038 213.737 22.9136L211.698 22.1854C212.062 21.3358 212.547 20.6744 213.154 20.2011C213.767 19.7217 214.434 19.3879 215.156 19.1998C215.885 19.0056 216.601 18.9085 217.305 18.9085C217.754 18.9085 218.27 18.9631 218.852 19.0724C219.441 19.1755 220.008 19.3909 220.554 19.7186C221.106 20.0463 221.565 20.5409 221.929 21.2023C222.293 21.8638 222.475 22.7497 222.475 23.8602V33.0719H220.327V31.1786H220.217C220.072 31.482 219.829 31.8066 219.489 32.1525C219.149 32.4984 218.697 32.7927 218.133 33.0355C217.569 33.2782 216.88 33.3996 216.067 33.3996ZM216.394 31.4698C217.244 31.4698 217.96 31.303 218.543 30.9692C219.131 30.6355 219.574 30.2046 219.872 29.6767C220.175 29.1487 220.327 28.5935 220.327 28.0109V26.0448C220.236 26.154 220.035 26.2542 219.726 26.3452C219.423 26.4301 219.071 26.506 218.67 26.5727C218.276 26.6334 217.89 26.688 217.514 26.7366C217.144 26.7791 216.843 26.8155 216.613 26.8458C216.055 26.9186 215.533 27.037 215.047 27.2008C214.568 27.3586 214.18 27.5983 213.882 27.9199C213.591 28.2355 213.445 28.6663 213.445 29.2124C213.445 29.9588 213.721 30.5232 214.274 30.9055C214.832 31.2817 215.539 31.4698 216.394 31.4698Z" fill="#757575"/>
<path d="M228.544 24.6612V33.0719H226.396V19.0906H228.471V21.2751H228.653C228.981 20.5652 229.478 19.9947 230.146 19.5639C230.813 19.127 231.675 18.9085 232.731 18.9085C233.678 18.9085 234.506 19.1027 235.216 19.4911C235.926 19.8734 236.478 20.4559 236.873 21.2387C237.267 22.0155 237.464 22.9985 237.464 24.1879V33.0719H235.316V24.3336C235.316 23.2352 235.031 22.3796 234.46 21.7667C233.89 21.1477 233.107 20.8382 232.112 20.8382C231.426 20.8382 230.813 20.9869 230.273 21.2842C229.739 21.5816 229.318 22.0155 229.008 22.5859C228.699 23.1563 228.544 23.8481 228.544 24.6612Z" fill="#757575"/>
<path d="M247.47 19.0906V20.911H240.225V19.0906H247.47ZM242.336 15.7409H244.484V29.0668C244.484 29.6736 244.572 30.1288 244.748 30.4322C244.93 30.7295 245.161 30.9298 245.44 31.0329C245.725 31.13 246.026 31.1786 246.341 31.1786C246.578 31.1786 246.772 31.1664 246.924 31.1422C247.076 31.1118 247.197 31.0875 247.288 31.0693L247.725 32.999C247.579 33.0537 247.376 33.1083 247.115 33.1629C246.854 33.2236 246.523 33.2539 246.123 33.2539C245.516 33.2539 244.921 33.1234 244.339 32.8625C243.762 32.6016 243.283 32.2041 242.901 31.6701C242.524 31.1361 242.336 30.4625 242.336 29.6494V15.7409Z" fill="#757575"/>
</g>
<defs>
<clipPath id="clip0_651_126">
<rect width="247.451" height="33.6001" fill="white" transform="translate(0.274658 7.19995)"/>
</clipPath>
</defs>
</svg>
