<svg width="121" height="120" viewBox="0 0 121 120" fill="none" xmlns="http://www.w3.org/2000/svg">
<g clip-path="url(#clip0_644_155)">
<path d="M60.3746 84.9007C58.5505 84.9007 56.8139 84.1143 55.6104 82.7434C54.5315 81.5139 52.7519 81.1612 51.2853 81.8831C49.649 82.6893 47.7437 82.7514 46.0591 82.0531C44.3734 81.355 43.0697 79.964 42.482 78.2367C41.9558 76.6876 40.4489 75.682 38.8157 75.7867C37.0001 75.9066 35.212 75.2338 33.9216 73.9435C32.6316 72.6535 31.9596 70.8694 32.0779 69.0491C32.1845 67.4167 31.1772 65.9093 29.6284 65.3826C27.9013 64.7954 26.51 63.4919 25.812 61.8065C25.1139 60.1211 25.176 58.2158 25.9823 56.5792C26.7047 55.1121 26.3509 53.3339 25.1214 52.2547C23.7508 51.0512 22.9642 49.3146 22.9642 47.4905C22.9642 45.6664 23.7507 43.9295 25.1214 42.726C26.3509 41.6469 26.7047 39.8687 25.9823 38.4012C25.176 36.7649 25.114 34.8596 25.812 33.1743C26.51 31.4889 27.9013 30.1854 29.6284 29.5979C31.1772 29.0715 32.1845 27.564 32.0779 25.9319C31.9596 24.1112 32.6316 22.3272 33.9216 21.0372C35.2116 19.7475 36.9996 19.0768 38.8157 19.1938C40.4542 19.3017 41.9563 18.2926 42.482 16.744C43.0697 15.0164 44.3734 13.6254 46.0591 12.9274C47.7442 12.2291 49.6495 12.2914 51.2853 13.0976C52.7525 13.8195 54.5315 13.4666 55.6104 12.2373C56.8139 10.8664 58.5505 10.0801 60.3746 10.0801C62.1987 10.0801 63.9358 10.8664 65.1394 12.2373C66.2182 13.4666 67.9962 13.8206 69.4638 13.0976C71.1007 12.2914 73.007 12.2296 74.6911 12.9279C76.3768 13.626 77.68 15.017 78.2672 16.744C78.7934 18.2929 80.3051 19.2982 81.9334 19.1938C83.7501 19.0736 85.5382 19.7472 86.8276 21.0372C88.1176 22.3272 88.7896 24.111 88.6713 25.9316C88.5647 27.5637 89.5725 29.0715 91.1208 29.5982C92.8478 30.1851 94.2391 31.4886 94.9372 33.174C95.6352 34.8594 95.5737 36.7646 94.7669 38.4015C94.045 39.8687 94.3988 41.6472 95.6278 42.726C96.9984 43.9295 97.785 45.6661 97.785 47.4905C97.785 49.3149 96.9984 51.0512 95.6278 52.2547C94.3988 53.3336 94.045 55.1121 94.7674 56.5798C95.5737 58.2161 95.6352 60.1214 94.9372 61.8068C94.2391 63.4921 92.8478 64.7956 91.1208 65.3828C89.5725 65.9093 88.5647 67.417 88.6713 69.0488C88.7896 70.8697 88.1176 72.6538 86.8276 73.9438C85.5376 75.2338 83.7475 75.9055 81.9334 75.7867C80.2955 75.6836 78.7934 76.6882 78.2672 78.2365C77.68 79.9638 76.3768 81.3548 74.6911 82.0529C73.007 82.7512 71.1018 82.6899 69.4638 81.8831C67.9957 81.1607 66.2177 81.5145 65.1394 82.7435C63.9358 84.1143 62.1992 84.9007 60.3746 84.9007ZM52.8798 78.7963C54.6641 78.7963 56.4187 79.5474 57.6515 80.9517C58.3394 81.7354 59.3318 82.1849 60.3746 82.1849C61.418 82.1849 62.4104 81.7354 63.0983 80.9517C64.9861 78.8014 68.097 78.1824 70.6637 79.4469C71.5998 79.9075 72.6882 79.9431 73.6521 79.544C74.6153 79.1448 75.36 78.3497 75.6958 77.3624C76.6166 74.6532 79.2533 72.8893 82.1096 73.0769C83.1518 73.1415 84.1702 72.7599 84.907 72.0234C85.6448 71.2859 86.0288 70.2661 85.9609 69.2252C85.7753 66.3704 87.5373 63.733 90.2467 62.8116C91.2344 62.4759 92.0294 61.7309 92.4283 60.7674C92.8272 59.8042 92.7916 58.7149 92.3313 57.7795C91.0673 55.2123 91.6863 52.1014 93.836 50.2139C94.6195 49.5257 95.0693 48.5333 95.0693 47.4904C95.0693 46.4476 94.6195 45.4547 93.836 44.767C91.6863 42.8792 91.0672 39.7683 92.3307 37.2016C92.7916 36.2657 92.8272 35.1765 92.4283 34.2132C92.0294 33.2498 91.2344 32.5048 90.2467 32.1693C87.5373 31.2477 85.7753 28.6105 85.9609 25.7552C86.0288 24.7145 85.6448 23.6947 84.9075 22.9572C84.1702 22.2199 83.1507 21.8393 82.1095 21.9035C79.2517 22.0865 76.6171 20.3274 75.6957 17.6181C75.3605 16.6309 74.6152 15.8359 73.652 15.4367C72.6893 15.0381 71.5998 15.0726 70.6636 15.5338C68.0969 16.7972 64.986 16.179 63.0983 14.029C62.4103 13.2453 61.4179 12.7958 60.3746 12.7958C59.3318 12.7958 58.3394 13.2453 57.6514 14.029C55.7642 16.1793 52.6528 16.7983 50.0855 15.5338C49.1509 15.0736 48.062 15.0376 47.0982 15.4364C46.1344 15.8356 45.3892 16.6307 45.0535 17.6183C44.1321 20.3272 41.4975 22.0876 38.6396 21.9035C37.6053 21.8391 36.58 22.2197 35.8422 22.9575C35.1044 23.6947 34.7204 24.7148 34.7883 25.7554C34.9739 28.6104 33.2119 31.2479 30.5025 32.169C29.5154 32.5048 28.7203 33.25 28.3209 34.2135C27.922 35.1767 27.9576 36.2657 28.418 37.2011C29.6825 39.7681 29.0635 42.8792 26.9132 44.767C26.1297 45.4547 25.68 46.4474 25.68 47.4904C25.68 48.5335 26.1297 49.5257 26.9132 50.2136C29.0635 52.1014 29.6825 55.2126 28.418 57.7793C27.9575 58.7149 27.922 59.8038 28.3209 60.7671C28.7203 61.7306 29.5154 62.4759 30.5025 62.8114C33.2119 63.7327 34.9739 66.3702 34.7883 69.2254C34.7204 70.2659 35.1044 71.2859 35.8422 72.0232C36.5795 72.7607 37.5995 73.1423 38.6396 73.0768C41.4816 72.8903 44.1321 74.6532 45.0535 77.3623C45.3892 78.3497 46.1344 79.145 47.0982 79.5442C48.062 79.9436 49.1509 79.908 50.0855 79.4468C50.9761 79.0082 51.9319 78.7963 52.8798 78.7963Z" fill="black"/>
<path d="M31.7225 110.08C31.5904 110.08 31.4567 110.061 31.3268 110.021C30.8468 109.875 30.4866 109.476 30.3901 108.984L27.9586 96.591L15.5659 94.1596C15.0737 94.0631 14.6748 93.7029 14.5284 93.2231C14.382 92.7431 14.5125 92.2217 14.8673 91.8671L34.3401 72.3947C34.8705 71.8642 35.7298 71.8642 36.2602 72.3947C36.7907 72.9248 36.7907 73.7846 36.2602 74.3148L18.5899 91.9855L29.377 94.1018C29.9186 94.2079 30.3419 94.6315 30.4479 95.1728L32.5643 105.96L56.7323 81.7927C57.2627 81.2623 58.122 81.2623 58.6524 81.7927C59.1829 82.3229 59.1829 83.1827 58.6524 83.7128L32.6826 109.682C32.4243 109.941 32.0773 110.08 31.7225 110.08Z" fill="black"/>
<path d="M89.0267 110.08C88.6719 110.08 88.325 109.941 88.0667 109.682L62.0974 83.7128C61.567 83.1826 61.567 82.3228 62.0974 81.7926C62.6278 81.2622 63.4871 81.2622 64.0175 81.7926L88.185 105.96L90.3014 95.1727C90.4074 94.6314 90.8307 94.2079 91.3723 94.1018L102.159 91.9854L84.4891 74.3148C83.9586 73.7846 83.9586 72.9248 84.4891 72.3947C85.0195 71.8642 85.8788 71.8642 86.4092 72.3947L105.882 91.8671C106.237 92.2217 106.367 92.7431 106.221 93.2231C106.074 93.7029 105.676 94.0631 105.183 94.1596L92.7907 96.591L90.3592 108.984C90.2627 109.476 89.9025 109.875 89.4225 110.021C89.2925 110.061 89.1588 110.08 89.0267 110.08Z" fill="black"/>
<path d="M60.3746 74.4793C45.4932 74.4793 33.3858 62.372 33.3858 47.4903C33.3858 35.2971 41.6115 24.577 53.3889 21.421C54.1114 21.2298 54.8582 21.6563 55.0523 22.3814C55.2465 23.1057 54.8163 23.8504 54.0923 24.0445C43.4993 26.8828 36.1016 36.5242 36.1016 47.4903C36.1016 60.8746 46.9905 71.7635 60.3746 71.7635C73.7586 71.7635 84.6481 60.8746 84.6481 47.4903C84.6481 42.2699 82.998 37.28 79.8754 33.0603C79.4293 32.4574 79.5566 31.6072 80.1592 31.1611C80.7618 30.7153 81.6126 30.842 82.0586 31.4451C85.5291 36.1356 87.3639 41.684 87.3639 47.4902C87.3639 62.3719 75.2565 74.4793 60.3746 74.4793Z" fill="black"/>
<path d="M52.5435 59.2401H47.1821C45.1352 59.2401 43.4702 57.5749 43.4702 55.5277V46.6694C43.4702 44.6225 45.1352 42.9573 47.1821 42.9573H52.5435C54.5904 42.9573 56.2559 44.6225 56.2559 46.6694V50.4768C56.2559 51.2268 55.6481 51.8347 54.8981 51.8347C54.148 51.8347 53.5402 51.2268 53.5402 50.4768V46.6694C53.5402 46.1199 53.0931 45.673 52.5435 45.673H47.1821C46.6326 45.673 46.1859 46.1199 46.1859 46.6694V55.5277C46.1859 56.0772 46.6326 56.5244 47.1821 56.5244H52.5435C53.093 56.5244 53.5402 56.0772 53.5402 55.5277C53.5402 54.7776 54.148 54.1698 54.8981 54.1698C55.6481 54.1698 56.2559 54.7776 56.2559 55.5277C56.2559 57.5748 54.5904 59.2401 52.5435 59.2401Z" fill="black"/>
<path d="M69.5843 59.2634H57.2526C55.2057 59.2634 53.5402 57.5981 53.5402 55.551C53.5402 54.8009 54.148 54.1931 54.898 54.1931C55.6481 54.1931 56.2559 54.8009 56.2559 55.551C56.2559 56.1005 56.703 56.5476 57.2526 56.5476H69.5843C70.1719 56.5476 70.6504 56.0692 70.6504 55.481C70.6504 55.3011 70.599 55.1219 70.4966 54.9481C70.2696 54.5615 70.2484 54.0878 70.4393 53.6823C70.6303 53.2765 71.0089 52.9914 71.4519 52.9201C71.9712 52.8365 72.3483 52.3971 72.3483 51.8752C72.3483 51.467 72.117 51.2023 71.9791 51.0809C71.6222 50.7671 71.4556 50.2898 71.5394 49.8222C71.6232 49.3546 71.9452 48.965 72.3886 48.7945C72.8055 48.6338 73.075 48.2452 73.075 47.8044C73.075 47.4297 72.8761 47.0889 72.543 46.8926C72.0831 46.6219 71.8248 46.1071 71.8821 45.5769C71.9394 45.0465 72.3016 44.5988 72.8082 44.4323C73.25 44.2875 73.5465 43.8844 73.5465 43.4293C73.5465 42.858 73.0951 42.3899 72.5297 42.3637C72.4852 42.3695 72.4459 42.3738 72.4056 42.3764C72.299 42.3841 72.1961 42.3785 72.0948 42.3626H65.4348C64.6848 42.3626 64.077 41.7547 64.077 41.0047V34.8566C64.077 33.9825 63.3656 33.2715 62.4916 33.2715H61.1979V36.6691C61.1979 36.9359 61.1194 37.1968 60.9719 37.4193L55.4704 45.718C55.0556 46.3434 54.2139 46.5136 53.588 46.0993C52.9632 45.6851 52.7924 44.8425 53.2067 44.2174L58.4822 36.2598V33.0908C58.4822 31.6929 59.6194 30.5557 61.0176 30.5557H62.4917C64.8632 30.5557 66.7928 32.485 66.7928 34.8566V39.6468H72.3134C72.3399 39.6468 72.3665 39.6476 72.3925 39.6492C72.4211 39.6476 72.4502 39.6468 72.4799 39.6468C74.5655 39.6468 76.2624 41.3436 76.2624 43.4292C76.2624 44.3831 75.9043 45.2716 75.2954 45.9473C75.6142 46.5067 75.7908 47.1456 75.7908 47.8043C75.7908 48.7981 75.4111 49.7159 74.7597 50.4005C74.9586 50.8627 75.0641 51.3639 75.0641 51.875C75.0641 53.1968 74.39 54.3701 73.3398 55.0458C73.3572 55.1901 73.3663 55.3354 73.3663 55.4808C73.3663 57.5664 71.6699 59.2634 69.5843 59.2634Z" fill="black"/>
<path d="M67.8689 24.3379C68.6188 24.3379 69.2268 23.73 69.2268 22.9801C69.2268 22.2301 68.6188 21.6222 67.8689 21.6222C67.119 21.6222 66.511 22.2301 66.511 22.9801C66.511 23.73 67.119 24.3379 67.8689 24.3379Z" fill="black"/>
<path d="M72.864 26.47C73.6139 26.47 74.2218 25.8621 74.2218 25.1121C74.2218 24.3622 73.6139 23.7543 72.864 23.7543C72.114 23.7543 71.5061 24.3622 71.5061 25.1121C71.5061 25.8621 72.114 26.47 72.864 26.47Z" fill="black"/>
<path d="M77.294 29.6103C78.0439 29.6103 78.6519 29.0023 78.6519 28.2524C78.6519 27.5025 78.0439 26.8945 77.294 26.8945C76.5441 26.8945 75.9361 27.5025 75.9361 28.2524C75.9361 29.0023 76.5441 29.6103 77.294 29.6103Z" fill="black"/>
</g>
<defs>
<clipPath id="clip0_644_155">
<rect width="100" height="100" fill="white" transform="translate(10.3027 10.0801)"/>
</clipPath>
</defs>
</svg>
