<svg aria-hidden="true" style="position: absolute; width: 0; height: 0; overflow: hidden;" version="1.1" xmlns="http://www.w3.org/2000/svg" xmlns:xlink="http://www.w3.org/1999/xlink">
<defs>
<symbol id="icon-menu" viewBox="0 0 40 32">
<path d="M2.526 0h35.368c1.395 0 2.526 1.131 2.526 2.526s-1.131 2.526-2.526 2.526h-35.368c-1.395 0-2.526-1.131-2.526-2.526s1.131-2.526 2.526-2.526z"></path>
<path d="M2.526 13.474h35.368c1.395 0 2.526 1.131 2.526 2.526s-1.131 2.526-2.526 2.526h-35.368c-1.395 0-2.526-1.131-2.526-2.526s1.131-2.526 2.526-2.526z"></path>
<path d="M2.526 26.947h35.368c1.395 0 2.526 1.131 2.526 2.526s-1.131 2.526-2.526 2.526h-35.368c-1.395 0-2.526-1.131-2.526-2.526s1.131-2.526 2.526-2.526z"></path>
</symbol>
<symbol id="icon-icon-viber" viewBox="0 0 32 32">
<path fill="#fff" style="fill: var(--color1, #fff)" d="M16.747 1.7c7.747 1.191 11.32 4.875 12.306 12.678 0.092 0.721-0.177 1.805 0.851 1.825 1.075 0.021 0.816-1.048 0.825-1.769 0.091-7.349-6.316-14.162-13.758-14.413-0.562 0.081-1.723-0.387-1.796 0.871-0.048 0.848 0.93 0.709 1.572 0.808z"></path>
<path fill="#fff" style="fill: var(--color1, #fff)" d="M28.702 22.85c-2.6-1.834-5.869-5.344-8.417-1.435-0.85 1.287-2.040 1.343-3.285 0.779-3.431-1.556-6.080-3.952-7.632-7.44-1.83-4.332 2.65-3.518 2.567-6.538-0.089-1.644-4.081-7.138-5.657-7.718-0.652-0.24-1.302-0.224-1.966-0.001-3.696 1.243-5.227 4.283-3.761 7.882 4.374 10.739 12.072 18.215 22.669 22.778 0.604 0.26 1.275 0.364 1.615 0.457 2.413 0.024 5.239-2.3 6.055-4.607 0.786-2.22-0.875-3.1-2.188-4.158z"></path>
<path fill="#fff" style="fill: var(--color1, #fff)" d="M18.269 3.834c-0.745-0.090-1.729-0.441-1.903 0.593-0.182 1.085 0.914 0.975 1.619 1.133 4.785 1.069 6.451 2.811 7.238 7.557 0.115 0.692-0.113 1.769 1.062 1.59 0.871-0.133 0.557-1.056 0.63-1.595 0.039-4.557-3.866-8.704-8.647-9.278z"></path>
<path fill="#fff" style="fill: var(--color1, #fff)" d="M18.722 7.541c-0.497 0.012-0.985 0.066-1.169 0.598-0.274 0.795 0.303 0.984 0.891 1.078 1.963 0.315 2.996 1.473 3.192 3.43 0.053 0.531 0.39 0.962 0.903 0.901 0.711-0.085 0.776-0.718 0.754-1.319 0.035-2.199-2.45-4.741-4.571-4.688z"></path>
</symbol>
<symbol id="icon-icon-tg" viewBox="0 0 37 32">
<path fill="#fff" style="fill: var(--color1, #fff)" d="M36.818 3.417l-5.572 26.111c-0.421 1.843-1.517 2.302-3.074 1.433l-8.49-6.216-4.096 3.915c-0.453 0.45-0.832 0.827-1.706 0.827l0.61-8.592 15.735-14.128c0.684-0.606-0.148-0.942-1.063-0.336l-19.452 12.171-8.374-2.605c-1.822-0.565-1.855-1.81 0.379-2.678l32.756-12.539c1.517-0.565 2.844 0.336 2.349 2.637z"></path>
</symbol>
<symbol id="icon-icon-fb" viewBox="0 0 32 32">
<path fill="#fff" style="fill: var(--color1, #fff)" d="M0 14.816c0 4.668 2.328 8.819 5.961 11.532v5.653l5.45-2.994c9.657 2.713 20.589-3.784 20.589-14.19 0-8.186-7.164-14.816-16.004-14.816-8.509 0-15.996 6.388-15.996 14.816zM14.313 10.672l4.176 4.339 7.841-4.339-8.745 9.28-4.074-4.347-7.943 4.347 8.745-9.28z"></path>
</symbol>
<symbol id="icon-icon-mail" viewBox="0 0 32 32">
<path fill="#fff" style="fill: var(--color1, #fff)" d="M1.6 5.067c0.4-0.133 0.933-0.267 1.333-0.267h26c0.533 0 0.933 0.133 1.333 0.267-4.133 4.133-8.267 8.133-12.4 12.267-1.067 1.2-3.067 1.2-4.133 0-3.867-4.133-8-8.267-12.133-12.267z"></path>
<path fill="#fff" style="fill: var(--color1, #fff)" d="M0.267 6.4c3.2 3.2 6.533 6.4 9.733 9.6-3.2 3.2-6.533 6.4-9.733 9.6-0.133-0.267-0.133-0.667-0.267-0.933v-17.333c0-0.267 0.133-0.8 0.267-0.933z"></path>
<path fill="#fff" style="fill: var(--color1, #fff)" d="M22 16c3.2-3.2 6.533-6.4 9.733-9.6 0.133 0.267 0.133 0.667 0.267 0.933v17.2c-0.133 0.4-0.133 0.667-0.267 1.067-3.2-3.2-6.533-6.4-9.733-9.6z"></path>
<path fill="#fff" style="fill: var(--color1, #fff)" d="M1.6 26.933c3.2-3.2 6.533-6.4 9.733-9.6 0.933 0.8 1.6 1.867 2.8 2.4 1.467 0.667 3.467 0.4 4.8-0.533 0.667-0.533 1.2-1.2 1.867-1.733 3.2 3.2 6.533 6.4 9.733 9.6-0.4 0.133-0.933 0.267-1.333 0.267-8.267 0-16.533 0-24.8 0-1.067-0.133-2 0-2.8-0.4z"></path>
</symbol>
<symbol id="icon-icon-arrow" viewBox="0 0 32 32">
<path d="M5.333 16l20-11.547v23.094l-20-11.547z"></path>
</symbol>
<symbol id="icon-icon-24-7" viewBox="0 0 32 32">
<path d="M15.978 20.5c-4.694 0-8.513-3.819-8.513-8.513 0-3.846 2.595-7.228 6.31-8.223 0.192-0.051 0.39 0.063 0.442 0.255s-0.063 0.391-0.255 0.442c-3.4 0.911-5.775 4.006-5.775 7.526 0 4.296 3.495 7.791 7.791 7.791s7.791-3.495 7.791-7.791c0-1.676-0.53-3.278-1.532-4.632-0.119-0.16-0.085-0.386 0.075-0.505s0.386-0.085 0.505 0.075c1.095 1.479 1.673 3.23 1.673 5.061 0 4.694-3.819 8.513-8.513 8.513z"></path>
<path d="M12.958 6.308c-0.054 0-0.108-0.012-0.16-0.038-0.179-0.088-0.252-0.305-0.163-0.484l0.91-1.835c0.089-0.179 0.305-0.252 0.484-0.163s0.252 0.305 0.163 0.484l-0.91 1.835c-0.063 0.127-0.191 0.201-0.324 0.201z"></path>
<path d="M13.868 4.473c-0.064 0-0.128-0.017-0.187-0.052l-1.752-1.062c-0.171-0.103-0.225-0.325-0.122-0.496s0.325-0.225 0.496-0.122l1.752 1.062c0.17 0.103 0.225 0.325 0.122 0.496-0.068 0.112-0.187 0.174-0.309 0.174z"></path>
<path d="M25.096 16.422c-0.049 0-0.099-0.010-0.147-0.032-0.182-0.081-0.263-0.295-0.182-0.477 0.554-1.238 0.835-2.56 0.835-3.928 0-3.671-2.041-6.971-5.327-8.614-0.178-0.089-0.251-0.306-0.162-0.484s0.306-0.251 0.484-0.162c3.532 1.766 5.726 5.314 5.726 9.26 0 1.471-0.302 2.891-0.898 4.223-0.060 0.134-0.192 0.214-0.33 0.214z"></path>
<path d="M11.518 21.284c-0.054 0-0.109-0.012-0.161-0.038-3.532-1.766-5.726-5.314-5.726-9.26 0-1.47 0.302-2.891 0.898-4.223 0.082-0.182 0.295-0.263 0.477-0.182s0.263 0.295 0.182 0.477c-0.554 1.238-0.835 2.56-0.835 3.928 0 3.671 2.041 6.971 5.327 8.614 0.178 0.089 0.251 0.306 0.161 0.484-0.063 0.127-0.191 0.2-0.323 0.2z"></path>
<path d="M9.027 27.726c-0.075 0-0.137-0.026-0.186-0.078s-0.074-0.113-0.074-0.182c0-0.070 0.022-0.126 0.065-0.17l1.827-2.033c0.128-0.142 0.217-0.243 0.267-0.303s0.115-0.146 0.193-0.256c0.078-0.111 0.132-0.214 0.162-0.311s0.045-0.196 0.045-0.3c0-0.226-0.089-0.424-0.267-0.594s-0.397-0.255-0.657-0.255c-0.25 0-0.464 0.075-0.639 0.226s-0.273 0.341-0.292 0.572c-0.010 0.070-0.047 0.125-0.112 0.164s-0.137 0.060-0.217 0.060c-0.094 0-0.173-0.031-0.236-0.094s-0.096-0.138-0.096-0.227c0.005-0.361 0.166-0.662 0.482-0.903s0.689-0.361 1.118-0.361c0.465 0 0.85 0.134 1.157 0.403s0.46 0.598 0.46 0.988c0 0.147-0.017 0.283-0.050 0.41s-0.094 0.255-0.181 0.386c-0.087 0.131-0.163 0.238-0.229 0.321s-0.167 0.199-0.302 0.348l-1.412 1.567h2.101c0.084 0 0.157 0.031 0.218 0.092s0.092 0.134 0.092 0.218-0.031 0.157-0.092 0.218c-0.061 0.061-0.134 0.092-0.218 0.092h-2.928z"></path>
<path d="M16.382 25.813c0.075 0 0.137 0.026 0.188 0.078s0.076 0.113 0.076 0.184c0 0.071-0.026 0.132-0.078 0.184s-0.114 0.078-0.186 0.078h-0.451v1.080c0 0.108-0.034 0.195-0.101 0.262s-0.153 0.099-0.256 0.099c-0.104 0-0.188-0.033-0.255-0.099s-0.099-0.154-0.099-0.262v-1.080h-2.224c-0.079 0-0.146-0.027-0.2-0.081s-0.081-0.121-0.081-0.2c0-0.070 0.024-0.131 0.072-0.184l2.575-3.019c0.065-0.075 0.154-0.111 0.267-0.108 0.089 0 0.162 0.031 0.218 0.092s0.085 0.139 0.085 0.233v2.744h0.451zM13.584 25.813h1.636v-1.975l-1.636 1.975z"></path>
<path d="M18.733 22.66c0.043-0.173 0.154-0.26 0.332-0.26 0.137 0 0.238 0.048 0.303 0.144s0.074 0.224 0.029 0.383l-1.751 6.174c-0.019 0.079-0.060 0.141-0.123 0.186s-0.132 0.067-0.209 0.067c-0.128 0-0.225-0.051-0.292-0.152s-0.079-0.226-0.036-0.375l1.748-6.167z"></path>
<path d="M21.452 27.784c-0.123 0-0.22-0.044-0.291-0.132s-0.082-0.202-0.034-0.341l1.383-3.903h-2.011c-0.089 0-0.164-0.031-0.226-0.092s-0.092-0.137-0.092-0.226 0.031-0.164 0.092-0.226c0.061-0.061 0.137-0.092 0.226-0.092h2.574c0.094 0 0.167 0.038 0.218 0.114s0.062 0.156 0.031 0.24l-1.531 4.362c-0.067 0.197-0.18 0.296-0.339 0.296z"></path>
<path d="M15.978 13.402c-0.781 0-1.416-0.635-1.416-1.416s0.635-1.416 1.416-1.416c0.781 0 1.416 0.635 1.416 1.416s-0.635 1.416-1.416 1.416zM15.978 11.292c-0.382 0-0.694 0.311-0.694 0.694s0.311 0.694 0.694 0.694c0.382 0 0.694-0.311 0.694-0.694s-0.311-0.694-0.694-0.694z"></path>
<path d="M10.464 13.129c-0.63 0-1.142-0.512-1.142-1.142s0.512-1.142 1.142-1.142c0.63 0 1.142 0.512 1.142 1.142s-0.512 1.142-1.142 1.142zM10.464 11.566c-0.232 0-0.42 0.189-0.42 0.42s0.189 0.42 0.42 0.42c0.232 0 0.42-0.189 0.42-0.42s-0.189-0.42-0.42-0.42z"></path>
<path d="M15.978 18.642c-0.63 0-1.142-0.512-1.142-1.142s0.512-1.142 1.142-1.142c0.63 0 1.142 0.512 1.142 1.142s-0.512 1.142-1.142 1.142zM15.978 17.080c-0.232 0-0.42 0.189-0.42 0.42s0.189 0.42 0.42 0.42c0.232 0 0.42-0.189 0.42-0.42s-0.189-0.42-0.42-0.42z"></path>
<path d="M21.492 13.129c-0.63 0-1.142-0.512-1.142-1.142s0.512-1.142 1.142-1.142c0.63 0 1.142 0.512 1.142 1.142s-0.512 1.142-1.142 1.142zM21.492 11.566c-0.232 0-0.42 0.189-0.42 0.42s0.189 0.42 0.42 0.42c0.232 0 0.42-0.189 0.42-0.42s-0.189-0.42-0.42-0.42z"></path>
<path d="M16.724 11.601c-0.092 0-0.185-0.035-0.255-0.106-0.141-0.141-0.141-0.37 0-0.511l2.025-2.025c0.141-0.141 0.369-0.141 0.511 0s0.141 0.37 0 0.511l-2.025 2.025c-0.070 0.070-0.163 0.106-0.255 0.106z"></path>
<path d="M15.978 11.293c-0.199 0-0.361-0.162-0.361-0.361v-4.47c0-0.199 0.162-0.361 0.361-0.361s0.361 0.162 0.361 0.361v4.47c0 0.199-0.162 0.361-0.361 0.361z"></path>
<path d="M18.338 15.127h-4.72c-0.199 0-0.361-0.162-0.361-0.361s0.162-0.361 0.361-0.361h4.72c0.199 0 0.361 0.162 0.361 0.361s-0.162 0.361-0.361 0.361z"></path>
<path d="M18.362 4.551c0.199 0 0.361-0.162 0.361-0.361s-0.162-0.361-0.361-0.361c-0.199 0-0.361 0.162-0.361 0.361s0.162 0.361 0.361 0.361z"></path>
<path d="M19.568 5.028c0.199 0 0.361-0.162 0.361-0.361s-0.162-0.361-0.361-0.361c-0.199 0-0.361 0.162-0.361 0.361s0.162 0.361 0.361 0.361z"></path>
<path d="M20.683 5.691c0.199 0 0.361-0.162 0.361-0.361s-0.162-0.361-0.361-0.361c-0.199 0-0.361 0.162-0.361 0.361s0.162 0.361 0.361 0.361z"></path>
<path d="M21.677 6.522c0.199 0 0.361-0.162 0.361-0.361s-0.162-0.361-0.361-0.361c-0.199 0-0.361 0.162-0.361 0.361s0.162 0.361 0.361 0.361z"></path>
</symbol>
<symbol id="icon-icon-garanty" viewBox="0 0 32 32">
<path d="M16.1 22.64c-0.486 0-0.95-0.21-1.27-0.575-0.288-0.328-0.762-0.422-1.153-0.229-0.436 0.215-0.944 0.232-1.394 0.045s-0.797-0.557-0.954-1.018c-0.14-0.413-0.542-0.681-0.978-0.653-0.484 0.032-0.961-0.147-1.305-0.492s-0.523-0.82-0.492-1.305c0.028-0.435-0.24-0.837-0.653-0.978-0.461-0.157-0.832-0.504-1.018-0.954s-0.17-0.958 0.045-1.394c0.193-0.391 0.098-0.865-0.23-1.153-0.365-0.321-0.575-0.784-0.575-1.27s0.21-0.95 0.575-1.271c0.328-0.288 0.422-0.762 0.23-1.153-0.215-0.436-0.232-0.944-0.045-1.394s0.557-0.797 1.018-0.954c0.413-0.14 0.682-0.542 0.653-0.978-0.032-0.486 0.148-0.961 0.492-1.305s0.821-0.523 1.305-0.492c0.437 0.029 0.838-0.24 0.978-0.653 0.157-0.461 0.504-0.832 0.954-1.018s0.957-0.17 1.394 0.045c0.391 0.192 0.866 0.098 1.153-0.229 0.321-0.366 0.784-0.575 1.27-0.575s0.95 0.21 1.271 0.575c0.288 0.328 0.762 0.422 1.153 0.229 0.436-0.215 0.945-0.231 1.394-0.045s0.797 0.557 0.954 1.018c0.14 0.413 0.543 0.681 0.978 0.653 0.484-0.032 0.961 0.148 1.305 0.492s0.523 0.82 0.492 1.305c-0.028 0.435 0.24 0.837 0.653 0.978 0.461 0.156 0.832 0.504 1.018 0.954s0.17 0.957-0.045 1.394c-0.192 0.391-0.098 0.866 0.23 1.153 0.366 0.321 0.575 0.784 0.575 1.271s-0.21 0.95-0.575 1.27c-0.328 0.288-0.422 0.762-0.229 1.153 0.215 0.436 0.231 0.944 0.045 1.394s-0.557 0.797-1.018 0.954c-0.413 0.14-0.682 0.542-0.653 0.978 0.032 0.486-0.148 0.961-0.492 1.305s-0.821 0.523-1.305 0.491c-0.437-0.027-0.837 0.24-0.978 0.653-0.157 0.461-0.504 0.832-0.954 1.018s-0.957 0.17-1.394-0.045c-0.392-0.193-0.866-0.098-1.153 0.229-0.321 0.366-0.784 0.575-1.271 0.575zM14.101 21.012c0.476 0 0.944 0.2 1.272 0.575 0.183 0.209 0.448 0.329 0.726 0.329s0.543-0.12 0.726-0.329c0.503-0.573 1.333-0.738 2.017-0.401 0.25 0.123 0.54 0.132 0.797 0.026s0.455-0.318 0.545-0.582c0.246-0.722 0.949-1.193 1.71-1.143 0.278 0.017 0.549-0.085 0.746-0.281s0.299-0.469 0.281-0.746c-0.049-0.761 0.42-1.465 1.143-1.71 0.263-0.090 0.475-0.288 0.582-0.545s0.097-0.547-0.026-0.797c-0.337-0.685-0.172-1.514 0.401-2.018 0.209-0.184 0.329-0.448 0.329-0.726s-0.12-0.543-0.329-0.726c-0.573-0.503-0.738-1.333-0.401-2.017 0.123-0.25 0.132-0.54 0.026-0.797s-0.318-0.456-0.582-0.545c-0.723-0.246-1.192-0.949-1.143-1.71 0.018-0.278-0.084-0.549-0.281-0.746s-0.468-0.298-0.746-0.281c-0.762 0.049-1.465-0.42-1.71-1.143-0.089-0.263-0.288-0.475-0.545-0.582s-0.547-0.097-0.797 0.026c-0.684 0.337-1.514 0.172-2.017-0.401-0.183-0.209-0.448-0.329-0.726-0.329s-0.543 0.12-0.726 0.329c-0.503 0.573-1.333 0.738-2.018 0.401-0.249-0.123-0.54-0.132-0.797-0.026s-0.456 0.318-0.545 0.582c-0.246 0.722-0.948 1.192-1.71 1.143-0.276-0.017-0.549 0.084-0.746 0.281s-0.299 0.469-0.281 0.746c0.050 0.761-0.42 1.465-1.143 1.71-0.263 0.090-0.475 0.288-0.582 0.545s-0.097 0.547 0.026 0.797c0.337 0.685 0.172 1.514-0.401 2.018-0.209 0.183-0.329 0.448-0.329 0.726s0.12 0.543 0.329 0.726c0.573 0.503 0.738 1.333 0.401 2.018-0.123 0.249-0.132 0.54-0.026 0.797s0.319 0.456 0.582 0.545c0.723 0.246 1.192 0.949 1.143 1.71-0.018 0.277 0.084 0.549 0.281 0.746s0.469 0.298 0.746 0.281c0.758-0.050 1.465 0.42 1.71 1.143 0.090 0.263 0.288 0.475 0.545 0.582s0.547 0.097 0.797-0.026c0.238-0.117 0.492-0.173 0.745-0.173z"></path>
<path d="M8.459 29.355c-0.035 0-0.071-0.005-0.106-0.016-0.128-0.039-0.224-0.145-0.25-0.277l-0.648-3.305-3.305-0.648c-0.131-0.026-0.238-0.122-0.277-0.25s-0.004-0.267 0.090-0.362l5.193-5.193c0.141-0.141 0.371-0.141 0.512 0s0.141 0.371 0 0.512l-4.712 4.712 2.877 0.564c0.144 0.028 0.257 0.141 0.286 0.286l0.564 2.877 6.445-6.445c0.141-0.141 0.371-0.141 0.512 0s0.141 0.371 0 0.512l-6.925 6.925c-0.069 0.069-0.161 0.106-0.256 0.106z"></path>
<path d="M23.74 29.355c-0.095 0-0.187-0.037-0.256-0.106l-6.925-6.925c-0.141-0.141-0.141-0.371 0-0.512s0.371-0.141 0.512 0l6.445 6.445 0.564-2.877c0.028-0.144 0.141-0.257 0.286-0.286l2.876-0.564-4.712-4.712c-0.141-0.141-0.141-0.371 0-0.512s0.371-0.141 0.512 0l5.193 5.193c0.095 0.095 0.129 0.234 0.090 0.362s-0.145 0.224-0.277 0.25l-3.305 0.648-0.648 3.305c-0.026 0.131-0.122 0.238-0.25 0.277-0.035 0.011-0.070 0.016-0.106 0.016z"></path>
<path d="M16.1 19.861c-3.968 0-7.197-3.229-7.197-7.197 0-3.252 2.194-6.11 5.334-6.952 0.193-0.051 0.392 0.063 0.444 0.256s-0.063 0.392-0.256 0.444c-2.825 0.757-4.798 3.328-4.798 6.252 0 3.569 2.904 6.473 6.473 6.473s6.473-2.904 6.473-6.473c0-1.392-0.44-2.723-1.273-3.848-0.119-0.161-0.085-0.387 0.076-0.506s0.388-0.085 0.506 0.076c0.925 1.251 1.415 2.73 1.415 4.279 0 3.968-3.229 7.197-7.197 7.197z"></path>
<path d="M14.012 15.797h-1.43c-0.546 0-0.99-0.444-0.99-0.99v-2.362c0-0.546 0.444-0.99 0.99-0.99h1.43c0.546 0 0.99 0.444 0.99 0.99v1.015c0 0.2-0.162 0.362-0.362 0.362s-0.362-0.162-0.362-0.362v-1.015c0-0.147-0.119-0.266-0.266-0.266h-1.43c-0.147 0-0.266 0.119-0.266 0.266v2.362c0 0.147 0.119 0.266 0.266 0.266h1.43c0.147 0 0.266-0.119 0.266-0.266 0-0.2 0.162-0.362 0.362-0.362s0.362 0.162 0.362 0.362c0 0.546-0.444 0.99-0.99 0.99z"></path>
<path d="M18.556 15.804h-3.288c-0.546 0-0.99-0.444-0.99-0.99 0-0.2 0.162-0.362 0.362-0.362s0.362 0.162 0.362 0.362c0 0.147 0.119 0.266 0.266 0.266h3.288c0.157 0 0.284-0.128 0.284-0.284 0-0.048-0.014-0.096-0.041-0.142-0.061-0.103-0.066-0.229-0.015-0.338s0.152-0.184 0.27-0.203c0.138-0.022 0.239-0.139 0.239-0.279 0-0.109-0.062-0.179-0.098-0.212-0.095-0.084-0.14-0.211-0.117-0.336s0.108-0.229 0.226-0.274c0.111-0.043 0.183-0.146 0.183-0.264 0-0.1-0.053-0.191-0.142-0.243-0.123-0.072-0.192-0.209-0.176-0.351s0.112-0.261 0.247-0.305c0.118-0.039 0.197-0.146 0.197-0.267 0-0.152-0.12-0.277-0.271-0.284-0.012 0.002-0.022 0.003-0.033 0.003-0.028 0.002-0.056 0.001-0.083-0.004h-1.776c-0.2 0-0.362-0.162-0.362-0.362v-1.639c0-0.233-0.19-0.423-0.423-0.423h-0.345v0.906c0 0.071-0.021 0.141-0.060 0.2l-1.467 2.213c-0.111 0.167-0.335 0.212-0.502 0.102s-0.212-0.335-0.102-0.502l1.407-2.122v-0.845c0-0.373 0.303-0.676 0.676-0.676h0.393c0.632 0 1.147 0.514 1.147 1.147v1.277h1.472c0.007 0 0.014 0 0.021 0.001s0.015-0.001 0.023-0.001c0.556 0 1.009 0.452 1.009 1.009 0 0.254-0.096 0.491-0.258 0.671 0.085 0.149 0.132 0.32 0.132 0.495 0 0.265-0.101 0.51-0.275 0.692 0.053 0.123 0.081 0.257 0.081 0.393 0 0.352-0.18 0.665-0.46 0.846 0.005 0.038 0.007 0.077 0.007 0.116 0 0.556-0.452 1.009-1.009 1.009z"></path>
<path d="M18.098 6.49c0.2 0 0.362-0.162 0.362-0.362s-0.162-0.362-0.362-0.362c-0.2 0-0.362 0.162-0.362 0.362s0.162 0.362 0.362 0.362z"></path>
<path d="M19.43 7.059c0.2 0 0.362-0.162 0.362-0.362s-0.162-0.362-0.362-0.362c-0.2 0-0.362 0.162-0.362 0.362s0.162 0.362 0.362 0.362z"></path>
<path d="M20.612 7.896c0.2 0 0.362-0.162 0.362-0.362s-0.162-0.362-0.362-0.362c-0.2 0-0.362 0.162-0.362 0.362s0.162 0.362 0.362 0.362z"></path>
</symbol>
<symbol id="icon-camera" viewBox="0 0 32 32">
<path d="M9.5 19c0 3.59 2.91 6.5 6.5 6.5s6.5-2.91 6.5-6.5-2.91-6.5-6.5-6.5-6.5 2.91-6.5 6.5zM30 8h-7c-0.5-2-1-4-3-4h-8c-2 0-2.5 2-3 4h-7c-1.1 0-2 0.9-2 2v18c0 1.1 0.9 2 2 2h28c1.1 0 2-0.9 2-2v-18c0-1.1-0.9-2-2-2zM16 27.875c-4.902 0-8.875-3.973-8.875-8.875s3.973-8.875 8.875-8.875c4.902 0 8.875 3.973 8.875 8.875s-3.973 8.875-8.875 8.875zM30 14h-4v-2h4v2z"></path>
</symbol>
<symbol id="icon-menu-close" viewBox="0 0 34 32">
<path fill="#fff" style="fill: var(--color1, #fff)" d="M6.594 1.72l23.759 23.759c0.937 0.937 0.937 2.457 0 3.394s-2.457 0.937-3.394 0l-23.759-23.759c-0.937-0.937-0.937-2.457 0-3.394s2.457-0.937 3.394 0z"></path>
<path fill="#fff" style="fill: var(--color1, #fff)" d="M3.2 25.479l23.759-23.759c0.937-0.937 2.457-0.937 3.394 0s0.937 2.457 0 3.394l-23.759 23.759c-0.937 0.937-2.457 0.937-3.394 0s-0.937-2.457 0-3.394z"></path>
</symbol>
</defs>
</svg>
