<svg aria-hidden="true" style="position: absolute; width: 0; height: 0; overflow: hidden;" version="1.1" xmlns="http://www.w3.org/2000/svg" xmlns:xlink="http://www.w3.org/1999/xlink">
<defs>
<symbol id="icon-icon-viber" viewBox="0 0 32 32">
<path fill="#fff" style="fill: var(--color1, #fff)" d="M16.747 1.7c7.747 1.191 11.32 4.875 12.306 12.678 0.092 0.721-0.177 1.805 0.851 1.825 1.075 0.021 0.816-1.048 0.825-1.769 0.091-7.349-6.316-14.162-13.758-14.413-0.562 0.081-1.723-0.387-1.796 0.871-0.048 0.848 0.93 0.709 1.572 0.808z"></path>
<path fill="#fff" style="fill: var(--color1, #fff)" d="M28.702 22.85c-2.6-1.834-5.869-5.344-8.417-1.435-0.85 1.287-2.040 1.343-3.285 0.779-3.431-1.556-6.080-3.952-7.632-7.44-1.83-4.332 2.65-3.518 2.567-6.538-0.089-1.644-4.081-7.138-5.657-7.718-0.652-0.24-1.302-0.224-1.966-0.001-3.696 1.243-5.227 4.283-3.761 7.882 4.374 10.739 12.072 18.215 22.669 22.778 0.604 0.26 1.275 0.364 1.615 0.457 2.413 0.024 5.239-2.3 6.055-4.607 0.786-2.22-0.875-3.1-2.188-4.158z"></path>
<path fill="#fff" style="fill: var(--color1, #fff)" d="M18.269 3.834c-0.745-0.090-1.729-0.441-1.903 0.593-0.182 1.085 0.914 0.975 1.619 1.133 4.785 1.069 6.451 2.811 7.238 7.557 0.115 0.692-0.113 1.769 1.062 1.59 0.871-0.133 0.557-1.056 0.63-1.595 0.039-4.557-3.866-8.704-8.647-9.278z"></path>
<path fill="#fff" style="fill: var(--color1, #fff)" d="M18.722 7.541c-0.497 0.012-0.985 0.066-1.169 0.598-0.274 0.795 0.303 0.984 0.891 1.078 1.963 0.315 2.996 1.473 3.192 3.43 0.053 0.531 0.39 0.962 0.903 0.901 0.711-0.085 0.776-0.718 0.754-1.319 0.035-2.199-2.45-4.741-4.571-4.688z"></path>
</symbol>
<symbol id="icon-icon-tg" viewBox="0 0 37 32">
<path fill="#fff" style="fill: var(--color1, #fff)" d="M36.818 3.417l-5.572 26.111c-0.421 1.843-1.517 2.302-3.074 1.433l-8.49-6.216-4.096 3.915c-0.453 0.45-0.832 0.827-1.706 0.827l0.61-8.592 15.735-14.128c0.684-0.606-0.148-0.942-1.063-0.336l-19.452 12.171-8.374-2.605c-1.822-0.565-1.855-1.81 0.379-2.678l32.756-12.539c1.517-0.565 2.844 0.336 2.349 2.637z"></path>
</symbol>
<symbol id="icon-icon-fb" viewBox="0 0 32 32">
<path fill="#fff" style="fill: var(--color1, #fff)" d="M0 14.816c0 4.668 2.328 8.819 5.961 11.532v5.653l5.45-2.994c9.657 2.713 20.589-3.784 20.589-14.19 0-8.186-7.164-14.816-16.004-14.816-8.509 0-15.996 6.388-15.996 14.816zM14.313 10.672l4.176 4.339 7.841-4.339-8.745 9.28-4.074-4.347-7.943 4.347 8.745-9.28z"></path>
</symbol>
<symbol id="icon-icon-mail" viewBox="0 0 32 32">
<path fill="#fff" style="fill: var(--color1, #fff)" d="M1.6 5.067c0.4-0.133 0.933-0.267 1.333-0.267h26c0.533 0 0.933 0.133 1.333 0.267-4.133 4.133-8.267 8.133-12.4 12.267-1.067 1.2-3.067 1.2-4.133 0-3.867-4.133-8-8.267-12.133-12.267z"></path>
<path fill="#fff" style="fill: var(--color1, #fff)" d="M0.267 6.4c3.2 3.2 6.533 6.4 9.733 9.6-3.2 3.2-6.533 6.4-9.733 9.6-0.133-0.267-0.133-0.667-0.267-0.933v-17.333c0-0.267 0.133-0.8 0.267-0.933z"></path>
<path fill="#fff" style="fill: var(--color1, #fff)" d="M22 16c3.2-3.2 6.533-6.4 9.733-9.6 0.133 0.267 0.133 0.667 0.267 0.933v17.2c-0.133 0.4-0.133 0.667-0.267 1.067-3.2-3.2-6.533-6.4-9.733-9.6z"></path>
<path fill="#fff" style="fill: var(--color1, #fff)" d="M1.6 26.933c3.2-3.2 6.533-6.4 9.733-9.6 0.933 0.8 1.6 1.867 2.8 2.4 1.467 0.667 3.467 0.4 4.8-0.533 0.667-0.533 1.2-1.2 1.867-1.733 3.2 3.2 6.533 6.4 9.733 9.6-0.4 0.133-0.933 0.267-1.333 0.267-8.267 0-16.533 0-24.8 0-1.067-0.133-2 0-2.8-0.4z"></path>
</symbol>
<symbol id="icon-icon-arrow" viewBox="0 0 32 32">
<path d="M5.333 16l20-11.547v23.094l-20-11.547z"></path>
</symbol>
<symbol id="icon-icon-24-7" viewBox="0 0 32 32">
<path d="M15.978 20.5c-4.694 0-8.513-3.819-8.513-8.513 0-3.846 2.595-7.228 6.31-8.223 0.192-0.051 0.39 0.063 0.442 0.255s-0.063 0.391-0.255 0.442c-3.4 0.911-5.775 4.006-5.775 7.526 0 4.296 3.495 7.791 7.791 7.791s7.791-3.495 7.791-7.791c0-1.676-0.53-3.278-1.532-4.632-0.119-0.16-0.085-0.386 0.075-0.505s0.386-0.085 0.505 0.075c1.095 1.479 1.673 3.23 1.673 5.061 0 4.694-3.819 8.513-8.513 8.513z"></path>
<path d="M12.958 6.308c-0.054 0-0.108-0.012-0.16-0.038-0.179-0.088-0.252-0.305-0.163-0.484l0.91-1.835c0.089-0.179 0.305-0.252 0.484-0.163s0.252 0.305 0.163 0.484l-0.91 1.835c-0.063 0.127-0.191 0.201-0.324 0.201z"></path>
<path d="M13.868 4.473c-0.064 0-0.128-0.017-0.187-0.052l-1.752-1.062c-0.171-0.103-0.225-0.325-0.122-0.496s0.325-0.225 0.496-0.122l1.752 1.062c0.17 0.103 0.225 0.325 0.122 0.496-0.068 0.112-0.187 0.174-0.309 0.174z"></path>
<path d="M25.096 16.422c-0.049 0-0.099-0.010-0.147-0.032-0.182-0.081-0.263-0.295-0.182-0.477 0.554-1.238 0.835-2.56 0.835-3.928 0-3.671-2.041-6.971-5.327-8.614-0.178-0.089-0.251-0.306-0.162-0.484s0.306-0.251 0.484-0.162c3.532 1.766 5.726 5.314 5.726 9.26 0 1.471-0.302 2.891-0.898 4.223-0.060 0.134-0.192 0.214-0.33 0.214z"></path>
<path d="M11.518 21.284c-0.054 0-0.109-0.012-0.161-0.038-3.532-1.766-5.726-5.314-5.726-9.26 0-1.47 0.302-2.891 0.898-4.223 0.082-0.182 0.295-0.263 0.477-0.182s0.263 0.295 0.182 0.477c-0.554 1.238-0.835 2.56-0.835 3.928 0 3.671 2.041 6.971 5.327 8.614 0.178 0.089 0.251 0.306 0.161 0.484-0.063 0.127-0.191 0.2-0.323 0.2z"></path>
<path d="M9.027 27.726c-0.075 0-0.137-0.026-0.186-0.078s-0.074-0.113-0.074-0.182c0-0.070 0.022-0.126 0.065-0.17l1.827-2.033c0.128-0.142 0.217-0.243 0.267-0.303s0.115-0.146 0.193-0.256c0.078-0.111 0.132-0.214 0.162-0.311s0.045-0.196 0.045-0.3c0-0.226-0.089-0.424-0.267-0.594s-0.397-0.255-0.657-0.255c-0.25 0-0.464 0.075-0.639 0.226s-0.273 0.341-0.292 0.572c-0.010 0.070-0.047 0.125-0.112 0.164s-0.137 0.060-0.217 0.060c-0.094 0-0.173-0.031-0.236-0.094s-0.096-0.138-0.096-0.227c0.005-0.361 0.166-0.662 0.482-0.903s0.689-0.361 1.118-0.361c0.465 0 0.85 0.134 1.157 0.403s0.46 0.598 0.46 0.988c0 0.147-0.017 0.283-0.050 0.41s-0.094 0.255-0.181 0.386c-0.087 0.131-0.163 0.238-0.229 0.321s-0.167 0.199-0.302 0.348l-1.412 1.567h2.101c0.084 0 0.157 0.031 0.218 0.092s0.092 0.134 0.092 0.218-0.031 0.157-0.092 0.218c-0.061 0.061-0.134 0.092-0.218 0.092h-2.928z"></path>
<path d="M16.382 25.813c0.075 0 0.137 0.026 0.188 0.078s0.076 0.113 0.076 0.184c0 0.071-0.026 0.132-0.078 0.184s-0.114 0.078-0.186 0.078h-0.451v1.080c0 0.108-0.034 0.195-0.101 0.262s-0.153 0.099-0.256 0.099c-0.104 0-0.188-0.033-0.255-0.099s-0.099-0.154-0.099-0.262v-1.080h-2.224c-0.079 0-0.146-0.027-0.2-0.081s-0.081-0.121-0.081-0.2c0-0.070 0.024-0.131 0.072-0.184l2.575-3.019c0.065-0.075 0.154-0.111 0.267-0.108 0.089 0 0.162 0.031 0.218 0.092s0.085 0.139 0.085 0.233v2.744h0.451zM13.584 25.813h1.636v-1.975l-1.636 1.975z"></path>
<path d="M18.733 22.66c0.043-0.173 0.154-0.26 0.332-0.26 0.137 0 0.238 0.048 0.303 0.144s0.074 0.224 0.029 0.383l-1.751 6.174c-0.019 0.079-0.060 0.141-0.123 0.186s-0.132 0.067-0.209 0.067c-0.128 0-0.225-0.051-0.292-0.152s-0.079-0.226-0.036-0.375l1.748-6.167z"></path>
<path d="M21.452 27.784c-0.123 0-0.22-0.044-0.291-0.132s-0.082-0.202-0.034-0.341l1.383-3.903h-2.011c-0.089 0-0.164-0.031-0.226-0.092s-0.092-0.137-0.092-0.226 0.031-0.164 0.092-0.226c0.061-0.061 0.137-0.092 0.226-0.092h2.574c0.094 0 0.167 0.038 0.218 0.114s0.062 0.156 0.031 0.24l-1.531 4.362c-0.067 0.197-0.18 0.296-0.339 0.296z"></path>
<path d="M15.978 13.402c-0.781 0-1.416-0.635-1.416-1.416s0.635-1.416 1.416-1.416c0.781 0 1.416 0.635 1.416 1.416s-0.635 1.416-1.416 1.416zM15.978 11.292c-0.382 0-0.694 0.311-0.694 0.694s0.311 0.694 0.694 0.694c0.382 0 0.694-0.311 0.694-0.694s-0.311-0.694-0.694-0.694z"></path>
<path d="M10.464 13.129c-0.63 0-1.142-0.512-1.142-1.142s0.512-1.142 1.142-1.142c0.63 0 1.142 0.512 1.142 1.142s-0.512 1.142-1.142 1.142zM10.464 11.566c-0.232 0-0.42 0.189-0.42 0.42s0.189 0.42 0.42 0.42c0.232 0 0.42-0.189 0.42-0.42s-0.189-0.42-0.42-0.42z"></path>
<path d="M15.978 18.642c-0.63 0-1.142-0.512-1.142-1.142s0.512-1.142 1.142-1.142c0.63 0 1.142 0.512 1.142 1.142s-0.512 1.142-1.142 1.142zM15.978 17.080c-0.232 0-0.42 0.189-0.42 0.42s0.189 0.42 0.42 0.42c0.232 0 0.42-0.189 0.42-0.42s-0.189-0.42-0.42-0.42z"></path>
<path d="M21.492 13.129c-0.63 0-1.142-0.512-1.142-1.142s0.512-1.142 1.142-1.142c0.63 0 1.142 0.512 1.142 1.142s-0.512 1.142-1.142 1.142zM21.492 11.566c-0.232 0-0.42 0.189-0.42 0.42s0.189 0.42 0.42 0.42c0.232 0 0.42-0.189 0.42-0.42s-0.189-0.42-0.42-0.42z"></path>
<path d="M16.724 11.601c-0.092 0-0.185-0.035-0.255-0.106-0.141-0.141-0.141-0.37 0-0.511l2.025-2.025c0.141-0.141 0.369-0.141 0.511 0s0.141 0.37 0 0.511l-2.025 2.025c-0.070 0.070-0.163 0.106-0.255 0.106z"></path>
<path d="M15.978 11.293c-0.199 0-0.361-0.162-0.361-0.361v-4.47c0-0.199 0.162-0.361 0.361-0.361s0.361 0.162 0.361 0.361v4.47c0 0.199-0.162 0.361-0.361 0.361z"></path>
<path d="M18.338 15.127h-4.72c-0.199 0-0.361-0.162-0.361-0.361s0.162-0.361 0.361-0.361h4.72c0.199 0 0.361 0.162 0.361 0.361s-0.162 0.361-0.361 0.361z"></path>
<path d="M18.362 4.551c0.199 0 0.361-0.162 0.361-0.361s-0.162-0.361-0.361-0.361c-0.199 0-0.361 0.162-0.361 0.361s0.162 0.361 0.361 0.361z"></path>
<path d="M19.568 5.028c0.199 0 0.361-0.162 0.361-0.361s-0.162-0.361-0.361-0.361c-0.199 0-0.361 0.162-0.361 0.361s0.162 0.361 0.361 0.361z"></path>
<path d="M20.683 5.691c0.199 0 0.361-0.162 0.361-0.361s-0.162-0.361-0.361-0.361c-0.199 0-0.361 0.162-0.361 0.361s0.162 0.361 0.361 0.361z"></path>
<path d="M21.677 6.522c0.199 0 0.361-0.162 0.361-0.361s-0.162-0.361-0.361-0.361c-0.199 0-0.361 0.162-0.361 0.361s0.162 0.361 0.361 0.361z"></path>
</symbol>
<symbol id="icon-icon-garanty" viewBox="0 0 32 32">
<path d="M16.1 22.64c-0.486 0-0.95-0.21-1.27-0.575-0.288-0.328-0.762-0.422-1.153-0.229-0.436 0.215-0.944 0.232-1.394 0.045s-0.797-0.557-0.954-1.018c-0.14-0.413-0.542-0.681-0.978-0.653-0.484 0.032-0.961-0.147-1.305-0.492s-0.523-0.82-0.492-1.305c0.028-0.435-0.24-0.837-0.653-0.978-0.461-0.157-0.832-0.504-1.018-0.954s-0.17-0.958 0.045-1.394c0.193-0.391 0.098-0.865-0.23-1.153-0.365-0.321-0.575-0.784-0.575-1.27s0.21-0.95 0.575-1.271c0.328-0.288 0.422-0.762 0.23-1.153-0.215-0.436-0.232-0.944-0.045-1.394s0.557-0.797 1.018-0.954c0.413-0.14 0.682-0.542 0.653-0.978-0.032-0.486 0.148-0.961 0.492-1.305s0.821-0.523 1.305-0.492c0.437 0.029 0.838-0.24 0.978-0.653 0.157-0.461 0.504-0.832 0.954-1.018s0.957-0.17 1.394 0.045c0.391 0.192 0.866 0.098 1.153-0.229 0.321-0.366 0.784-0.575 1.27-0.575s0.95 0.21 1.271 0.575c0.288 0.328 0.762 0.422 1.153 0.229 0.436-0.215 0.945-0.231 1.394-0.045s0.797 0.557 0.954 1.018c0.14 0.413 0.543 0.681 0.978 0.653 0.484-0.032 0.961 0.148 1.305 0.492s0.523 0.82 0.492 1.305c-0.028 0.435 0.24 0.837 0.653 0.978 0.461 0.156 0.832 0.504 1.018 0.954s0.17 0.957-0.045 1.394c-0.192 0.391-0.098 0.866 0.23 1.153 0.366 0.321 0.575 0.784 0.575 1.271s-0.21 0.95-0.575 1.27c-0.328 0.288-0.422 0.762-0.229 1.153 0.215 0.436 0.231 0.944 0.045 1.394s-0.557 0.797-1.018 0.954c-0.413 0.14-0.682 0.542-0.653 0.978 0.032 0.486-0.148 0.961-0.492 1.305s-0.821 0.523-1.305 0.491c-0.437-0.027-0.837 0.24-0.978 0.653-0.157 0.461-0.504 0.832-0.954 1.018s-0.957 0.17-1.394-0.045c-0.392-0.193-0.866-0.098-1.153 0.229-0.321 0.366-0.784 0.575-1.271 0.575zM14.101 21.012c0.476 0 0.944 0.2 1.272 0.575 0.183 0.209 0.448 0.329 0.726 0.329s0.543-0.12 0.726-0.329c0.503-0.573 1.333-0.738 2.017-0.401 0.25 0.123 0.54 0.132 0.797 0.026s0.455-0.318 0.545-0.582c0.246-0.722 0.949-1.193 1.71-1.143 0.278 0.017 0.549-0.085 0.746-0.281s0.299-0.469 0.281-0.746c-0.049-0.761 0.42-1.465 1.143-1.71 0.263-0.090 0.475-0.288 0.582-0.545s0.097-0.547-0.026-0.797c-0.337-0.685-0.172-1.514 0.401-2.018 0.209-0.184 0.329-0.448 0.329-0.726s-0.12-0.543-0.329-0.726c-0.573-0.503-0.738-1.333-0.401-2.017 0.123-0.25 0.132-0.54 0.026-0.797s-0.318-0.456-0.582-0.545c-0.723-0.246-1.192-0.949-1.143-1.71 0.018-0.278-0.084-0.549-0.281-0.746s-0.468-0.298-0.746-0.281c-0.762 0.049-1.465-0.42-1.71-1.143-0.089-0.263-0.288-0.475-0.545-0.582s-0.547-0.097-0.797 0.026c-0.684 0.337-1.514 0.172-2.017-0.401-0.183-0.209-0.448-0.329-0.726-0.329s-0.543 0.12-0.726 0.329c-0.503 0.573-1.333 0.738-2.018 0.401-0.249-0.123-0.54-0.132-0.797-0.026s-0.456 0.318-0.545 0.582c-0.246 0.722-0.948 1.192-1.71 1.143-0.276-0.017-0.549 0.084-0.746 0.281s-0.299 0.469-0.281 0.746c0.050 0.761-0.42 1.465-1.143 1.71-0.263 0.090-0.475 0.288-0.582 0.545s-0.097 0.547 0.026 0.797c0.337 0.685 0.172 1.514-0.401 2.018-0.209 0.183-0.329 0.448-0.329 0.726s0.12 0.543 0.329 0.726c0.573 0.503 0.738 1.333 0.401 2.018-0.123 0.249-0.132 0.54-0.026 0.797s0.319 0.456 0.582 0.545c0.723 0.246 1.192 0.949 1.143 1.71-0.018 0.277 0.084 0.549 0.281 0.746s0.469 0.298 0.746 0.281c0.758-0.050 1.465 0.42 1.71 1.143 0.090 0.263 0.288 0.475 0.545 0.582s0.547 0.097 0.797-0.026c0.238-0.117 0.492-0.173 0.745-0.173z"></path>
<path d="M8.459 29.355c-0.035 0-0.071-0.005-0.106-0.016-0.128-0.039-0.224-0.145-0.25-0.277l-0.648-3.305-3.305-0.648c-0.131-0.026-0.238-0.122-0.277-0.25s-0.004-0.267 0.090-0.362l5.193-5.193c0.141-0.141 0.371-0.141 0.512 0s0.141 0.371 0 0.512l-4.712 4.712 2.877 0.564c0.144 0.028 0.257 0.141 0.286 0.286l0.564 2.877 6.445-6.445c0.141-0.141 0.371-0.141 0.512 0s0.141 0.371 0 0.512l-6.925 6.925c-0.069 0.069-0.161 0.106-0.256 0.106z"></path>
<path d="M23.74 29.355c-0.095 0-0.187-0.037-0.256-0.106l-6.925-6.925c-0.141-0.141-0.141-0.371 0-0.512s0.371-0.141 0.512 0l6.445 6.445 0.564-2.877c0.028-0.144 0.141-0.257 0.286-0.286l2.876-0.564-4.712-4.712c-0.141-0.141-0.141-0.371 0-0.512s0.371-0.141 0.512 0l5.193 5.193c0.095 0.095 0.129 0.234 0.090 0.362s-0.145 0.224-0.277 0.25l-3.305 0.648-0.648 3.305c-0.026 0.131-0.122 0.238-0.25 0.277-0.035 0.011-0.070 0.016-0.106 0.016z"></path>
<path d="M16.1 19.861c-3.968 0-7.197-3.229-7.197-7.197 0-3.252 2.194-6.11 5.334-6.952 0.193-0.051 0.392 0.063 0.444 0.256s-0.063 0.392-0.256 0.444c-2.825 0.757-4.798 3.328-4.798 6.252 0 3.569 2.904 6.473 6.473 6.473s6.473-2.904 6.473-6.473c0-1.392-0.44-2.723-1.273-3.848-0.119-0.161-0.085-0.387 0.076-0.506s0.388-0.085 0.506 0.076c0.925 1.251 1.415 2.73 1.415 4.279 0 3.968-3.229 7.197-7.197 7.197z"></path>
<path d="M14.012 15.797h-1.43c-0.546 0-0.99-0.444-0.99-0.99v-2.362c0-0.546 0.444-0.99 0.99-0.99h1.43c0.546 0 0.99 0.444 0.99 0.99v1.015c0 0.2-0.162 0.362-0.362 0.362s-0.362-0.162-0.362-0.362v-1.015c0-0.147-0.119-0.266-0.266-0.266h-1.43c-0.147 0-0.266 0.119-0.266 0.266v2.362c0 0.147 0.119 0.266 0.266 0.266h1.43c0.147 0 0.266-0.119 0.266-0.266 0-0.2 0.162-0.362 0.362-0.362s0.362 0.162 0.362 0.362c0 0.546-0.444 0.99-0.99 0.99z"></path>
<path d="M18.556 15.804h-3.288c-0.546 0-0.99-0.444-0.99-0.99 0-0.2 0.162-0.362 0.362-0.362s0.362 0.162 0.362 0.362c0 0.147 0.119 0.266 0.266 0.266h3.288c0.157 0 0.284-0.128 0.284-0.284 0-0.048-0.014-0.096-0.041-0.142-0.061-0.103-0.066-0.229-0.015-0.338s0.152-0.184 0.27-0.203c0.138-0.022 0.239-0.139 0.239-0.279 0-0.109-0.062-0.179-0.098-0.212-0.095-0.084-0.14-0.211-0.117-0.336s0.108-0.229 0.226-0.274c0.111-0.043 0.183-0.146 0.183-0.264 0-0.1-0.053-0.191-0.142-0.243-0.123-0.072-0.192-0.209-0.176-0.351s0.112-0.261 0.247-0.305c0.118-0.039 0.197-0.146 0.197-0.267 0-0.152-0.12-0.277-0.271-0.284-0.012 0.002-0.022 0.003-0.033 0.003-0.028 0.002-0.056 0.001-0.083-0.004h-1.776c-0.2 0-0.362-0.162-0.362-0.362v-1.639c0-0.233-0.19-0.423-0.423-0.423h-0.345v0.906c0 0.071-0.021 0.141-0.060 0.2l-1.467 2.213c-0.111 0.167-0.335 0.212-0.502 0.102s-0.212-0.335-0.102-0.502l1.407-2.122v-0.845c0-0.373 0.303-0.676 0.676-0.676h0.393c0.632 0 1.147 0.514 1.147 1.147v1.277h1.472c0.007 0 0.014 0 0.021 0.001s0.015-0.001 0.023-0.001c0.556 0 1.009 0.452 1.009 1.009 0 0.254-0.096 0.491-0.258 0.671 0.085 0.149 0.132 0.32 0.132 0.495 0 0.265-0.101 0.51-0.275 0.692 0.053 0.123 0.081 0.257 0.081 0.393 0 0.352-0.18 0.665-0.46 0.846 0.005 0.038 0.007 0.077 0.007 0.116 0 0.556-0.452 1.009-1.009 1.009z"></path>
<path d="M18.098 6.49c0.2 0 0.362-0.162 0.362-0.362s-0.162-0.362-0.362-0.362c-0.2 0-0.362 0.162-0.362 0.362s0.162 0.362 0.362 0.362z"></path>
<path d="M19.43 7.059c0.2 0 0.362-0.162 0.362-0.362s-0.162-0.362-0.362-0.362c-0.2 0-0.362 0.162-0.362 0.362s0.162 0.362 0.362 0.362z"></path>
<path d="M20.612 7.896c0.2 0 0.362-0.162 0.362-0.362s-0.162-0.362-0.362-0.362c-0.2 0-0.362 0.162-0.362 0.362s0.162 0.362 0.362 0.362z"></path>
</symbol>
<symbol id="icon-icon-qr" viewBox="0 0 32 32">
<path d="M2.377 0h27.733c1.178 0 2.133 0.955 2.133 2.133v27.733c0 1.178-0.955 2.133-2.133 2.133h-27.733c-1.178 0-2.133-0.955-2.133-2.133v-27.733c0-1.178 0.955-2.133 2.133-2.133z"></path>
</symbol>
<symbol id="icon-bluetooth-logo" viewBox="0 0 131 32">
<path d="M12.049 0.058c-12.341 0-11.372 16.218-11.372 16.218s-0.97 15.473 10.794 15.659c13.683 0.373 12.341-15.1 12.341-15.1s1.734-16.778-11.763-16.778zM13.876 15.904l5.499 5.592-8.296 8.389v-10.812l-4.437 4.288-1.733-1.678 5.685-5.592-5.685-5.779 1.64-1.678 4.53 4.474v-10.812l8.202 8.202-5.406 5.406zM16.094 10.497l-2.703-2.61v5.22l2.703-2.61zM13.503 24.292l2.498-2.796-2.61-2.61 0.112 5.406z"></path>
<path d="M29.050 3.786h6.898c2.777 0 4.66 1.491 4.66 5.779 0 2.424-0.708 3.915-1.976 5.033 1.771 0.746 2.684 2.983 2.684 5.779 0 4.847-2.535 6.897-5.164 6.897h-7.103v-23.489zM32.275 13.294h3.262c1.119 0 1.957-0.746 1.957-2.796 0-2.237-1.063-2.61-2.218-2.61h-3.001v5.406zM32.275 23.174h3.449c1.268 0 2.368-0.559 2.368-2.982s-0.951-3.356-2.312-3.356h-3.505v6.338z"></path>
<path d="M46.054 3.786v23.489h-2.912v-23.489h2.912z"></path>
<path d="M58.635 27.275h-2.778v-2.423h-0.056c-0.746 1.864-2.013 2.796-3.244 2.796-3.094 0-3.878-2.796-3.878-6.898v-10.44h2.927v9.508c0 2.796 0.503 4.288 1.864 4.288 1.566 0 2.256-1.492 2.256-4.847v-8.948h2.908v16.964z"></path>
<path d="M63.799 19.818c0.093 2.982 0.988 4.288 2.61 4.288 1.174 0 2.106-1.119 2.293-2.051h2.554c-0.82 3.915-2.554 5.593-4.959 5.593-3.337 0-5.406-3.542-5.406-8.948 0-5.033 2.2-8.762 5.406-8.762 3.616 0 5.35 4.66 5.145 9.88h-7.643zM68.534 17.022c-0.261-2.424-0.895-3.728-2.312-3.728-1.846 0-2.386 2.424-2.424 3.728h4.735z"></path>
<path d="M77.986 10.311h2.125v3.169h-2.125v8.389c0 1.491 0.242 1.864 1.23 1.864 0.298 0 0.578 0 0.894-0.186v3.728c-0.484 0.187-1.118 0.187-1.696 0.187-1.79 0-3.356-0.746-3.356-4.102v-9.88h-1.752v-3.169h1.752v-5.033h2.927v5.033z"></path>
<path d="M87.213 9.938c3.338 0 5.481 3.356 5.481 8.762s-2.143 8.948-5.481 8.948c-3.318 0-5.48-3.542-5.48-8.948s2.162-8.762 5.48-8.762zM87.213 24.106c1.976 0 2.573-2.61 2.573-5.406 0-2.61-0.597-5.406-2.573-5.406s-2.572 2.796-2.572 5.406c0 2.796 0.596 5.406 2.572 5.406z"></path>
<path d="M99.629 9.938c3.337 0 5.481 3.356 5.481 8.762s-2.144 8.948-5.481 8.948-5.481-3.542-5.481-8.948c0-5.406 2.144-8.762 5.481-8.762zM99.629 24.106c1.976 0 2.572-2.61 2.572-5.406 0-2.61-0.596-5.406-2.572-5.406s-2.573 2.796-2.573 5.406c0 2.796 0.597 5.406 2.573 5.406z"></path>
<path d="M111.15 10.311h2.125v3.169h-2.125v8.389c0 1.491 0.242 1.864 1.211 1.864 0.317 0 0.597 0 0.914-0.186v3.728c-0.503 0.187-1.137 0.187-1.696 0.187-1.79 0-3.356-0.746-3.356-4.102v-9.88h-1.752v-3.169h1.752v-5.033h2.927v5.033z"></path>
<path d="M116.127 3.786h2.908v8.948h0.056c0.746-2.051 2.013-2.796 3.094-2.796 3.094 0 3.878 2.61 3.878 6.898v10.439h-2.908v-9.694c0-2.796-0.522-4.101-1.865-4.101-1.584 0-2.255 1.491-2.255 4.847v8.948h-2.908v-23.489z"></path>
</symbol>
<symbol id="icon-android-logo" viewBox="0 0 218 32">
<path d="M10.818 10.276c3.008 0 5.516 1.546 6.684 3.217v-2.8h4.595v20.888h-3.121c-0.814 0-1.474-0.659-1.474-1.474v-1.323c-1.168 1.67-3.676 3.215-6.684 3.215-5.721 0-10.068-4.887-10.068-10.861s4.346-10.862 10.068-10.862zM11.654 14.454c-3.719 0-6.226 2.924-6.226 6.684 0 3.759 2.507 6.684 6.226 6.684 3.718 0 6.226-2.925 6.226-6.684 0-3.76-2.508-6.684-6.226-6.684z"></path>
<path d="M27.316 10.694h4.596v2.841c1.252-2.088 3.635-3.258 6.35-3.258 4.845 0 7.979 3.426 7.979 8.732v12.573h-3.122c-0.814 0-1.474-0.66-1.474-1.474v-10.347c0-3.3-1.672-5.305-4.344-5.305-3.050 0-5.389 2.381-5.389 6.85v10.276h-3.123c-0.813 0-1.473-0.66-1.473-1.474v-19.413z"></path>
<path d="M59.945 10.276c3.007 0 5.515 1.546 6.684 3.217v-13.243h4.594v31.331h-3.121c-0.813 0-1.473-0.659-1.473-1.474v-1.323c-1.169 1.67-3.677 3.215-6.684 3.215-5.724 0-10.069-4.887-10.069-10.861s4.345-10.862 10.069-10.862zM60.781 14.454c-3.718 0-6.224 2.924-6.224 6.684 0 3.759 2.507 6.684 6.224 6.684 3.716 0 6.223-2.925 6.223-6.684 0-3.76-2.507-6.684-6.223-6.684z"></path>
<path d="M76.442 10.694h4.595v3.718c0.793-2.381 3.133-3.927 5.515-3.927 0.583 0 1.17 0.042 1.797 0.167v4.72c-0.796-0.251-1.462-0.376-2.297-0.376-2.633 0-5.015 2.215-5.015 6.393v10.192h-3.122c-0.813 0-1.473-0.66-1.473-1.474v-19.413h-0z"></path>
<path d="M100.74 31.999c-6.181 0-10.945-4.805-10.945-10.86 0-6.058 4.763-10.863 10.945-10.863 6.184 0 10.945 4.804 10.945 10.863 0 6.055-4.761 10.86-10.945 10.86zM100.74 27.74c3.676 0 6.267-2.884 6.267-6.6s-2.591-6.601-6.267-6.601c-3.717 0-6.307 2.884-6.307 6.601s2.59 6.6 6.307 6.6z"></path>
<path d="M117.707 6.141c-1.671 0-3.092-1.377-3.092-3.092 0-1.671 1.421-3.049 3.092-3.049 1.712 0 3.049 1.379 3.049 3.049 0 1.715-1.337 3.092-3.049 3.092zM115.411 10.694h4.594v20.888h-3.121c-0.814 0-1.473-0.662-1.473-1.474v-19.414z"></path>
<path d="M133.848 10.276c3.009 0 5.516 1.546 6.686 3.217v-13.243h4.595v31.331h-3.121c-0.815 0-1.474-0.659-1.474-1.474v-1.323c-1.17 1.67-3.677 3.215-6.686 3.215-5.721 0-10.066-4.887-10.066-10.861s4.345-10.862 10.066-10.862zM134.685 14.454c-3.717 0-6.223 2.924-6.223 6.684 0 3.759 2.506 6.684 6.223 6.684s6.225-2.925 6.225-6.684c0-3.76-2.507-6.684-6.225-6.684z"></path>
<path d="M153.12 13.352h-4.497v-2.772h4.497v-5.84h2.94v5.84h6.134v2.772h-6.134v12.142c0 2.562 1.135 3.57 3.486 3.57 0.84 0 1.975-0.168 2.648-0.461v2.646c-0.968 0.378-1.975 0.546-3.11 0.546-3.57 0-5.964-2.060-5.964-6.051v-12.392z"></path>
<path d="M186.097 10.579l-9.83 21.005h-2.31l-9.831-21.005h3.277l7.688 16.678 7.687-16.678h3.319z"></path>
<path d="M203.182 2.182v29.818h-4.601v-25.254h-4.666v-4.563h9.267z"></path>
<path d="M217.34 2.182v29.818h-4.602v-25.254h-4.666v-4.563h9.268z"></path>
</symbol>
<symbol id="icon-google-logo" viewBox="0 0 237 32">
<path d="M32.739 11.047c1.299 0 2.354-1.060 2.354-2.367s-1.054-2.367-2.354-2.367c-1.299 0-2.354 1.061-2.354 2.367s1.054 2.367 2.354 2.367z"></path>
<path d="M25.678 18.938c2.6 0 4.707-2.119 4.707-4.734s-2.107-4.734-4.707-4.734c-2.6 0-4.707 2.119-4.707 4.734s2.107 4.734 4.707 4.734z"></path>
<path d="M25.678 31.563c3.033 0 5.492-2.473 5.492-5.523s-2.459-5.523-5.492-5.523-5.492 2.473-5.492 5.523c0 3.051 2.459 5.523 5.492 5.523z"></path>
<path d="M19.401 9.469c0-5.228-4.215-9.469-9.415-9.469s-9.415 4.24-9.415 9.469c0 5.228 4.215 9.469 9.415 9.469s9.415-4.24 9.415-9.469z"></path>
<path d="M55.283 26.079c-5.684 0-10.463-4.633-10.463-10.323-0.001-5.69 4.778-10.323 10.463-10.323 3.144 0 5.383 1.234 7.067 2.845l-1.987 1.989c-1.207-1.133-2.842-2.014-5.081-2.014-4.15 0-7.395 3.348-7.395 7.503s3.245 7.503 7.395 7.503c2.691 0 4.225-1.082 5.207-2.065 0.805-0.806 1.333-1.964 1.534-3.55h-6.739v-2.819h9.482c0.101 0.504 0.15 1.108 0.15 1.762 0 2.115-0.578 4.733-2.44 6.597-1.811 1.887-4.124 2.894-7.193 2.894z"></path>
<path d="M79.148 19.386c0 3.827-2.992 6.646-6.665 6.646-3.672 0-6.665-2.82-6.665-6.646 0-3.852 2.994-6.648 6.665-6.648 3.673 0 6.665 2.796 6.665 6.648zM76.231 19.386c0-2.392-1.736-4.029-3.748-4.029s-3.748 1.637-3.748 4.029c0 2.366 1.736 4.029 3.748 4.029s3.748-1.662 3.748-4.029z"></path>
<path d="M93.633 19.386c0 3.827-2.992 6.646-6.665 6.646-3.672 0-6.665-2.82-6.665-6.646 0-3.852 2.994-6.648 6.665-6.648 3.673 0 6.665 2.796 6.665 6.648zM90.716 19.386c0-2.392-1.736-4.029-3.749-4.029s-3.748 1.637-3.748 4.029c0 2.366 1.736 4.029 3.748 4.029s3.749-1.662 3.749-4.029z"></path>
<path d="M107.515 13.153v11.923c0 4.91-2.892 6.924-6.312 6.924-3.219 0-5.156-2.165-5.886-3.927l2.539-1.058c0.453 1.082 1.56 2.366 3.346 2.366 2.188 0 3.546-1.36 3.546-3.903v-0.956h-0.101c-0.653 0.806-1.912 1.511-3.496 1.511-3.32 0-6.363-2.896-6.363-6.622 0-3.752 3.043-6.672 6.363-6.672 1.585 0 2.842 0.705 3.496 1.486h0.101v-1.071h2.767zM104.949 19.411c0-2.341-1.56-4.053-3.546-4.053-2.012 0-3.698 1.712-3.698 4.053 0 2.317 1.685 4.004 3.698 4.004 1.986 0 3.546-1.687 3.546-4.004z"></path>
<path d="M109.497 6.107h2.917v19.538h-2.917v-19.538z"></path>
<path d="M123.434 21.576l2.264 1.511c-0.73 1.082-2.491 2.946-5.534 2.946-3.773 0-6.513-2.92-6.513-6.646 0-3.953 2.765-6.648 6.186-6.648 3.446 0 5.131 2.745 5.685 4.23l0.302 0.755-8.878 3.676c0.68 1.334 1.736 2.014 3.219 2.014 1.485 0 2.515-0.731 3.27-1.838zM116.466 19.184l5.935-2.467c-0.326-0.831-1.307-1.41-2.464-1.41-1.483-0.001-3.547 1.308-3.471 3.877z"></path>
<path d="M133.754 24.64h-2.254l6.519-17.754h2.219l6.519 17.754h-2.254l-5.306-14.945h-0.139l-5.305 14.945zM134.586 17.705h9.085v1.907h-9.085v-1.907z"></path>
<path d="M158.677 14.306l-1.838 0.52c-0.116-0.306-0.286-0.604-0.512-0.893-0.219-0.295-0.52-0.538-0.901-0.728s-0.87-0.286-1.465-0.286c-0.815 0-1.494 0.188-2.037 0.563-0.537 0.37-0.806 0.841-0.806 1.413 0 0.509 0.185 0.91 0.555 1.205s0.948 0.54 1.734 0.737l1.976 0.485c1.191 0.289 2.078 0.731 2.661 1.326 0.584 0.59 0.875 1.349 0.875 2.28 0 0.763-0.219 1.445-0.659 2.046-0.433 0.601-1.040 1.075-1.82 1.422s-1.688 0.52-2.722 0.52c-1.358 0-2.482-0.295-3.372-0.884s-1.453-1.451-1.69-2.583l1.941-0.485c0.185 0.717 0.535 1.254 1.049 1.612 0.52 0.358 1.199 0.538 2.037 0.538 0.953 0 1.71-0.202 2.271-0.607 0.566-0.41 0.85-0.902 0.85-1.474 0-0.462-0.162-0.85-0.485-1.162-0.324-0.318-0.821-0.555-1.491-0.711l-2.219-0.52c-1.219-0.289-2.115-0.737-2.687-1.344-0.566-0.613-0.85-1.378-0.85-2.297 0-0.751 0.211-1.416 0.632-1.994 0.428-0.578 1.009-1.032 1.742-1.361 0.74-0.329 1.578-0.494 2.514-0.494 1.317 0 2.352 0.289 3.103 0.867 0.757 0.578 1.294 1.341 1.613 2.289z"></path>
<path d="M171.431 14.306l-1.838 0.52c-0.115-0.306-0.286-0.604-0.511-0.893-0.219-0.295-0.52-0.538-0.901-0.728s-0.87-0.286-1.465-0.286c-0.815 0-1.494 0.188-2.037 0.563-0.537 0.37-0.806 0.841-0.806 1.413 0 0.509 0.185 0.91 0.555 1.205s0.948 0.54 1.734 0.737l1.976 0.485c1.19 0.289 2.078 0.731 2.661 1.326 0.584 0.59 0.875 1.349 0.875 2.28 0 0.763-0.219 1.445-0.659 2.046-0.434 0.601-1.040 1.075-1.82 1.422s-1.688 0.52-2.722 0.52c-1.358 0-2.482-0.295-3.372-0.884s-1.453-1.451-1.69-2.583l1.941-0.485c0.185 0.717 0.535 1.254 1.049 1.612 0.52 0.358 1.199 0.538 2.037 0.538 0.953 0 1.71-0.202 2.271-0.607 0.566-0.41 0.85-0.902 0.85-1.474 0-0.462-0.162-0.85-0.485-1.162-0.324-0.318-0.821-0.555-1.491-0.711l-2.219-0.52c-1.22-0.289-2.115-0.737-2.687-1.344-0.567-0.613-0.85-1.378-0.85-2.297 0-0.751 0.211-1.416 0.632-1.994 0.428-0.578 1.009-1.032 1.742-1.361 0.74-0.329 1.578-0.494 2.514-0.494 1.317 0 2.352 0.289 3.103 0.867 0.757 0.578 1.294 1.341 1.612 2.289z"></path>
<path d="M174.754 24.64v-13.316h2.046v13.316h-2.046zM175.794 9.105c-0.398 0-0.742-0.136-1.032-0.407-0.283-0.272-0.424-0.598-0.424-0.98s0.142-0.708 0.424-0.98c0.29-0.272 0.633-0.407 1.032-0.407s0.74 0.136 1.023 0.407c0.289 0.272 0.434 0.598 0.434 0.98s-0.145 0.708-0.434 0.98c-0.283 0.272-0.624 0.407-1.023 0.407z"></path>
<path d="M189.979 14.306l-1.838 0.52c-0.116-0.306-0.286-0.604-0.512-0.893-0.219-0.295-0.52-0.538-0.901-0.728s-0.87-0.286-1.465-0.286c-0.814 0-1.494 0.188-2.037 0.563-0.537 0.37-0.806 0.841-0.806 1.413 0 0.509 0.185 0.91 0.555 1.205s0.948 0.54 1.734 0.737l1.976 0.485c1.191 0.289 2.078 0.731 2.661 1.326 0.584 0.59 0.875 1.349 0.875 2.28 0 0.763-0.219 1.445-0.658 2.046-0.434 0.601-1.041 1.075-1.821 1.422s-1.688 0.52-2.722 0.52c-1.358 0-2.482-0.295-3.372-0.884s-1.453-1.451-1.69-2.583l1.941-0.485c0.185 0.717 0.535 1.254 1.049 1.612 0.52 0.358 1.199 0.538 2.037 0.538 0.954 0 1.71-0.202 2.271-0.607 0.566-0.41 0.85-0.902 0.85-1.474 0-0.462-0.162-0.85-0.485-1.162-0.324-0.318-0.821-0.555-1.491-0.711l-2.219-0.52c-1.219-0.289-2.115-0.737-2.687-1.344-0.566-0.613-0.85-1.378-0.85-2.297 0-0.751 0.211-1.416 0.632-1.994 0.428-0.578 1.009-1.032 1.742-1.361 0.74-0.329 1.578-0.494 2.514-0.494 1.317 0 2.352 0.289 3.103 0.867 0.757 0.578 1.294 1.341 1.613 2.289z"></path>
<path d="M199.092 11.324v1.734h-6.901v-1.734h6.901zM194.203 8.134h2.046v12.691c0 0.578 0.084 1.011 0.251 1.3 0.173 0.283 0.393 0.474 0.658 0.572 0.272 0.093 0.558 0.139 0.859 0.139 0.226 0 0.41-0.012 0.555-0.035 0.145-0.029 0.26-0.052 0.347-0.069l0.416 1.838c-0.139 0.052-0.332 0.104-0.581 0.156-0.248 0.058-0.564 0.087-0.945 0.087-0.578 0-1.144-0.124-1.699-0.373-0.549-0.249-1.006-0.627-1.37-1.136-0.358-0.509-0.537-1.15-0.537-1.925v-13.246z"></path>
<path d="M206.088 24.952c-0.844 0-1.61-0.159-2.297-0.477-0.688-0.324-1.234-0.789-1.639-1.396-0.405-0.613-0.606-1.352-0.606-2.219 0-0.763 0.15-1.381 0.45-1.855 0.301-0.48 0.702-0.855 1.205-1.127s1.058-0.474 1.664-0.607c0.613-0.139 1.228-0.249 1.847-0.329 0.809-0.104 1.465-0.182 1.968-0.234 0.508-0.058 0.878-0.153 1.109-0.286 0.237-0.133 0.356-0.364 0.356-0.694v-0.069c0-0.855-0.235-1.52-0.702-1.994-0.462-0.474-1.164-0.711-2.107-0.711-0.977 0-1.742 0.214-2.297 0.641s-0.945 0.884-1.17 1.37l-1.942-0.694c0.347-0.809 0.809-1.439 1.387-1.89 0.584-0.457 1.219-0.774 1.907-0.954 0.693-0.185 1.375-0.277 2.046-0.277 0.428 0 0.919 0.052 1.474 0.156 0.561 0.098 1.101 0.303 1.621 0.615 0.526 0.312 0.962 0.783 1.309 1.413s0.52 1.474 0.52 2.531v8.773h-2.046v-1.803h-0.104c-0.139 0.289-0.37 0.598-0.693 0.928s-0.754 0.61-1.291 0.841c-0.538 0.231-1.194 0.347-1.968 0.347zM206.399 23.114c0.809 0 1.491-0.159 2.046-0.477 0.56-0.318 0.982-0.728 1.266-1.231 0.289-0.503 0.434-1.032 0.434-1.586v-1.872c-0.087 0.104-0.277 0.199-0.572 0.286-0.29 0.081-0.624 0.153-1.006 0.217-0.376 0.058-0.743 0.11-1.101 0.156-0.353 0.040-0.638 0.075-0.859 0.104-0.531 0.069-1.029 0.182-1.491 0.338-0.456 0.15-0.826 0.378-1.109 0.685-0.277 0.3-0.416 0.711-0.416 1.231 0 0.711 0.263 1.248 0.789 1.612 0.532 0.358 1.205 0.538 2.020 0.538z"></path>
<path d="M217.97 16.63v8.010h-2.046v-13.316h1.976v2.081h0.174c0.312-0.676 0.786-1.219 1.422-1.63 0.635-0.416 1.456-0.624 2.462-0.624 0.901 0 1.691 0.185 2.366 0.555 0.677 0.364 1.202 0.919 1.578 1.664 0.376 0.74 0.564 1.676 0.564 2.809v8.461h-2.046v-8.322c0-1.046-0.271-1.861-0.814-2.445-0.543-0.589-1.289-0.884-2.237-0.884-0.653 0-1.237 0.142-1.751 0.425-0.509 0.283-0.91 0.696-1.205 1.24s-0.442 1.202-0.442 1.976z"></path>
<path d="M235.995 11.324v1.734h-6.901v-1.734h6.901zM231.106 8.134h2.046v12.691c0 0.578 0.084 1.011 0.251 1.3 0.173 0.283 0.393 0.474 0.659 0.572 0.271 0.093 0.558 0.139 0.858 0.139 0.226 0 0.411-0.012 0.555-0.035 0.145-0.029 0.26-0.052 0.347-0.069l0.416 1.838c-0.139 0.052-0.332 0.104-0.581 0.156-0.248 0.058-0.564 0.087-0.945 0.087-0.578 0-1.144-0.124-1.699-0.373-0.549-0.249-1.006-0.627-1.37-1.136-0.358-0.509-0.537-1.15-0.537-1.925v-13.246z"></path>
</symbol>
</defs>
</svg>
