<svg width="30" height="30" viewBox="0 0 30 30" fill="none" xmlns="http://www.w3.org/2000/svg">
<path fill-rule="evenodd" clip-rule="evenodd" d="M15.7 1.59392C22.9627 2.71064 26.3122 6.1644 27.237 13.4794C27.3228 14.1551 27.0712 15.1717 28.0351 15.1904C29.0426 15.2099 28.7998 14.208 28.8082 13.5317C28.8937 6.642 22.8866 0.255301 15.91 0.0196264C15.3835 0.095368 14.2943 -0.343432 14.2264 0.836509C14.1814 1.6318 15.0984 1.50128 15.7 1.59392Z" fill="white"/>
<path fill-rule="evenodd" clip-rule="evenodd" d="M26.908 21.4219C24.4704 19.7024 21.4054 16.4118 19.017 20.077C18.2198 21.2839 17.1041 21.3364 15.9373 20.8072C12.7208 19.3488 10.2373 17.1019 8.78222 13.8325C7.06646 9.77148 11.267 10.5342 11.1891 7.70298C11.1055 6.16187 7.36316 1.01081 5.88527 0.467166C5.2737 0.242132 4.66464 0.256842 4.04243 0.465914C0.577098 1.63114 -0.858236 4.48115 0.51638 7.85572C4.61738 17.9238 11.8341 24.9326 21.7687 29.2105C22.3352 29.454 22.9644 29.5513 23.283 29.6389C25.5449 29.6618 28.1942 27.4825 28.9595 25.3198C29.6963 23.239 28.1395 22.4134 26.908 21.4219Z" fill="white"/>
<path fill-rule="evenodd" clip-rule="evenodd" d="M17.1269 3.59412C16.4282 3.50993 15.5059 3.18067 15.3428 4.15028C15.1723 5.16779 16.2001 5.0645 16.8608 5.21223C21.3464 6.21471 22.9082 7.84754 23.6468 12.2969C23.7548 12.9457 23.5404 13.9554 24.6427 13.7879C25.4597 13.6633 25.1648 12.798 25.2331 12.2925C25.2694 8.02062 21.6088 4.13245 17.1269 3.59412Z" fill="white"/>
<path fill-rule="evenodd" clip-rule="evenodd" d="M17.5518 7.0696C17.0855 7.08118 16.6279 7.13157 16.4563 7.62984C16.199 8.37474 16.7405 8.55219 17.2916 8.64076C19.1317 8.93622 20.1001 10.0213 20.2841 11.8563C20.3339 12.3543 20.6499 12.758 21.131 12.7011C21.7976 12.6216 21.8581 12.0282 21.8375 11.4645C21.8703 9.40287 19.5402 7.02015 17.5518 7.0696Z" fill="white"/>
</svg>
