<svg width="121" height="120" viewBox="0 0 121 120" fill="none" xmlns="http://www.w3.org/2000/svg">
<g clip-path="url(#clip0_644_128)">
<path d="M59.9167 76.8732C42.3129 76.8732 27.9916 62.5516 27.9916 44.9478C27.9916 30.5244 37.7222 17.8435 51.6537 14.1105C52.3745 13.9201 53.118 14.345 53.3121 15.068C53.5057 15.7901 53.0768 16.5326 52.3549 16.7261C39.6042 20.1424 30.6992 31.7476 30.6992 44.9478C30.6992 61.0584 43.8064 74.1655 59.9167 74.1655C76.0271 74.1655 89.1342 61.0584 89.1342 44.9478C89.1342 38.6631 87.1479 32.6569 83.39 27.5788C82.9453 26.9778 83.0722 26.1298 83.673 25.6851C84.2743 25.2406 85.122 25.3667 85.5667 25.968C89.6721 31.516 91.8419 38.079 91.8419 44.9478C91.8419 62.5516 77.5205 76.8732 59.9167 76.8732Z" fill="black"/>
<path d="M48.5923 23.6545C48.3903 23.6545 48.1856 23.6093 47.9921 23.5134C47.322 23.1815 47.0481 22.3692 47.3802 21.6992L50.7912 14.817C51.1233 14.1464 51.934 13.8725 52.6056 14.2054C53.2756 14.5372 53.5496 15.3495 53.2175 16.0195L49.8065 22.9018C49.5701 23.3785 49.0904 23.6545 48.5923 23.6545Z" fill="black"/>
<path d="M52.0033 16.7723C51.7643 16.7723 51.5221 16.7088 51.3026 16.5758L44.734 12.5943C44.0946 12.2069 43.8905 11.3743 44.2781 10.7349C44.6652 10.0952 45.4981 9.89114 46.1375 10.279L52.7062 14.2606C53.3455 14.6479 53.5496 15.4806 53.162 16.12C52.9077 16.5401 52.4607 16.7723 52.0033 16.7723Z" fill="black"/>
<path d="M94.1116 61.5843C93.9265 61.5843 93.7387 61.5462 93.5589 61.4658C92.8767 61.1604 92.5711 60.3595 92.8762 59.677C94.9546 55.0344 96.0085 50.0787 96.0085 44.9477C96.0085 31.1825 88.3547 18.8049 76.0335 12.6453C75.365 12.3108 75.0937 11.4978 75.4279 10.829C75.7622 10.1598 76.575 9.88905 77.2445 10.2232C90.4886 16.8447 98.7162 30.1502 98.7162 44.9477C98.7162 50.4623 97.5828 55.7903 95.348 60.7833C95.1228 61.286 94.6288 61.5843 94.1116 61.5843Z" fill="black"/>
<path d="M43.1935 79.8153C42.9899 79.8153 42.7836 79.7692 42.589 79.6722C29.3449 73.0507 21.1173 59.7453 21.1173 44.9477C21.1173 39.4342 22.2506 34.1061 24.486 29.1121C24.7922 28.4296 25.5923 28.1245 26.275 28.4296C26.9573 28.735 27.2629 29.536 26.9577 30.2184C24.8789 34.8621 23.8249 39.8178 23.8249 44.9477C23.8249 58.7129 31.4787 71.0906 43.8 77.2501C44.4684 77.5846 44.7397 78.3977 44.4055 79.0664C44.168 79.541 43.69 79.8153 43.1935 79.8153Z" fill="black"/>
<path d="M33.8516 103.973C33.5719 103.973 33.3392 103.877 33.1546 103.682C32.9695 103.488 32.877 103.26 32.877 102.998C32.877 102.737 32.9584 102.525 33.1208 102.362L39.9718 94.7389C40.4504 94.2063 40.7847 93.8272 40.974 93.6016C41.1638 93.3761 41.405 93.0553 41.6985 92.6402C41.9914 92.2251 42.1951 91.8369 42.3077 91.4757C42.4203 91.1148 42.4769 90.7401 42.4769 90.3519C42.4769 89.5034 42.1432 88.7609 41.4753 88.1245C40.8069 87.488 39.9856 87.1699 39.0109 87.1699C38.0717 87.1699 37.2726 87.4521 36.6143 88.0161C35.9548 88.5803 35.5894 89.2956 35.5175 90.1623C35.481 90.4241 35.3414 90.6293 35.0976 90.7784C34.8538 90.9273 34.583 91.0019 34.2853 91.0019C33.9331 91.0019 33.6374 90.8845 33.3984 90.6497C33.1588 90.4151 33.0393 90.1306 33.0393 89.7966C33.0573 88.4426 33.6602 87.3143 34.8469 86.4116C36.0341 85.5091 37.4308 85.0575 39.0379 85.0575C40.7799 85.0575 42.2268 85.5609 43.3775 86.5673C44.5283 87.574 45.1036 88.8083 45.1036 90.2705C45.1036 90.8213 45.0407 91.3334 44.9143 91.8073C44.7879 92.2814 44.5621 92.7642 44.2374 93.2563C43.9122 93.7484 43.6255 94.1497 43.3775 94.4612C43.129 94.7727 42.7524 95.2082 42.2469 95.768L36.9527 101.644H44.8329C45.1491 101.644 45.422 101.759 45.652 101.99C45.8826 102.22 45.9974 102.493 45.9974 102.809C45.9974 103.125 45.8826 103.398 45.652 103.628C45.422 103.858 45.1491 103.973 44.8329 103.973L33.8516 103.973Z" fill="black"/>
<path d="M61.4334 96.7971C61.7132 96.7971 61.948 96.8942 62.1373 97.0883C62.3272 97.2823 62.4218 97.5126 62.4218 97.7786C62.4218 98.0452 62.3245 98.2752 62.131 98.4693C61.9363 98.6634 61.7042 98.7604 61.4334 98.7604H59.7406V102.809C59.7406 103.215 59.6142 103.542 59.3614 103.791C59.1087 104.039 58.7882 104.163 58.4006 104.163C58.0118 104.163 57.694 104.039 57.446 103.791C57.1974 103.542 57.0732 103.215 57.0732 102.809V98.7604H48.7324C48.4347 98.7604 48.184 98.6589 47.981 98.4558C47.7779 98.2527 47.6764 98.0021 47.6764 97.7043C47.6764 97.4426 47.7668 97.2123 47.9471 97.0137L57.6015 85.694C57.8453 85.4143 58.179 85.2789 58.6036 85.2879C58.9373 85.2879 59.2102 85.4029 59.4228 85.633C59.6349 85.8633 59.7406 86.1544 59.7406 86.5063V96.7971H61.4334ZM50.9398 96.7971H57.0732V89.3906L50.9398 96.7971Z" fill="black"/>
<path d="M70.248 84.9764C70.4104 84.3264 70.8255 84.0015 71.494 84.0015C72.0085 84.0015 72.3877 84.1821 72.6315 84.543C72.8748 84.9042 72.9107 85.3825 72.7394 85.9782L66.1723 109.132C66.1004 109.43 65.947 109.662 65.7122 109.83C65.4774 109.996 65.2157 110.08 64.9269 110.08C64.4483 110.08 64.0829 109.89 63.8301 109.511C63.5773 109.132 63.5324 108.663 63.6947 108.103L70.248 84.9764Z" fill="black"/>
<path d="M80.4439 104.19C79.9838 104.19 79.62 104.025 79.354 103.696C79.0875 103.366 79.0446 102.94 79.2255 102.416L84.4112 87.7792H76.8695C76.5353 87.7792 76.2534 87.6642 76.0229 87.4339C75.7928 87.2038 75.6781 86.9217 75.6781 86.5877C75.6781 86.2538 75.7928 85.9716 76.0229 85.7413C76.2534 85.5113 76.5353 85.396 76.8695 85.396H86.5233C86.8756 85.396 87.1484 85.5383 87.3425 85.8225C87.5366 86.107 87.5752 86.4071 87.4578 86.7231L81.7168 103.08C81.464 103.82 81.0399 104.19 80.4439 104.19Z" fill="black"/>
<path d="M59.9167 50.2564C56.9896 50.2564 54.6083 47.875 54.6083 44.9477C54.6083 42.0204 56.9897 39.6393 59.9167 39.6393C62.8438 39.6393 65.2257 42.0206 65.2257 44.9477C65.2257 47.8747 62.8443 50.2564 59.9167 50.2564ZM59.9167 42.3468C58.4825 42.3468 57.3159 43.5135 57.3159 44.9476C57.3159 46.3818 58.4825 47.5487 59.9167 47.5487C61.3509 47.5487 62.518 46.3818 62.518 44.9476C62.518 43.5135 61.3509 42.3468 59.9167 42.3468Z" fill="black"/>
<path d="M39.2399 49.2319C36.8776 49.2319 34.9558 47.3101 34.9558 44.9478C34.9558 42.5856 36.8776 40.6641 39.2399 40.6641C41.6022 40.6641 43.524 42.5858 43.524 44.9478C43.524 47.3099 41.6022 49.2319 39.2399 49.2319ZM39.2399 43.3716C38.3705 43.3716 37.6635 44.0787 37.6635 44.9478C37.6635 45.8169 38.3705 46.5242 39.2399 46.5242C40.1093 46.5242 40.8163 45.8169 40.8163 44.9478C40.8163 44.0787 40.1093 43.3716 39.2399 43.3716Z" fill="black"/>
<path d="M59.9167 69.9089C57.555 69.9089 55.6331 67.9871 55.6331 65.6248C55.6331 63.2626 57.5549 61.3411 59.9167 61.3411C62.2785 61.3411 64.2008 63.2628 64.2008 65.6248C64.2008 67.9869 62.279 69.9089 59.9167 69.9089ZM59.9167 64.0486C59.0478 64.0486 58.3408 64.7557 58.3408 65.6248C58.3408 66.4939 59.0478 67.2012 59.9167 67.2012C60.7861 67.2012 61.4932 66.4939 61.4932 65.6248C61.4932 64.7557 60.7861 64.0486 59.9167 64.0486Z" fill="black"/>
<path d="M80.5941 49.2319C78.2318 49.2319 76.31 47.3101 76.31 44.9478C76.31 42.5856 78.2318 40.6641 80.5941 40.6641C82.9564 40.6641 84.8781 42.5858 84.8781 44.9478C84.8781 47.3099 82.9564 49.2319 80.5941 49.2319ZM80.5941 43.3716C79.7247 43.3716 79.0177 44.0787 79.0177 44.9478C79.0177 45.8169 79.7247 46.5242 80.5941 46.5242C81.4634 46.5242 82.1705 45.8169 82.1705 44.9478C82.1705 44.0787 81.4634 43.3716 80.5941 43.3716Z" fill="black"/>
<path d="M62.7132 43.5051C62.3669 43.5051 62.0204 43.3729 61.756 43.1085C61.2272 42.5799 61.2272 41.7226 61.756 41.1941L69.3506 33.5998C69.8794 33.0709 70.7361 33.0709 71.265 33.5998C71.7938 34.1283 71.7938 34.9856 71.265 35.5142L63.6704 43.1085C63.406 43.3729 63.0596 43.5051 62.7132 43.5051Z" fill="black"/>
<path d="M59.9167 42.347C59.1689 42.347 58.5629 41.741 58.5629 40.9932V24.2305C58.5629 23.4827 59.1689 22.8767 59.9167 22.8767C60.6645 22.8767 61.2705 23.4827 61.2705 24.2305V40.9932C61.2705 41.741 60.6645 42.347 59.9167 42.347Z" fill="black"/>
<path d="M68.7678 56.7246H51.0662C50.3184 56.7246 49.7124 56.1186 49.7124 55.3708C49.7124 54.623 50.3184 54.017 51.0662 54.017H68.7678C69.5156 54.017 70.1217 54.623 70.1217 55.3708C70.1217 56.1186 69.5156 56.7246 68.7678 56.7246Z" fill="black"/>
<path d="M68.8577 17.0676C69.6054 17.0676 70.2115 16.4615 70.2115 15.7138C70.2115 14.9661 69.6054 14.36 68.8577 14.36C68.11 14.36 67.5039 14.9661 67.5039 15.7138C67.5039 16.4615 68.11 17.0676 68.8577 17.0676Z" fill="black"/>
<path d="M73.3815 18.8567C74.1292 18.8567 74.7353 18.2505 74.7353 17.5029C74.7353 16.7552 74.1292 16.149 73.3815 16.149C72.6338 16.149 72.0277 16.7552 72.0277 17.5029C72.0277 18.2505 72.6338 18.8567 73.3815 18.8567Z" fill="black"/>
<path d="M77.5596 21.3429C78.3073 21.3429 78.9134 20.7368 78.9134 19.9891C78.9134 19.2414 78.3073 18.6353 77.5596 18.6353C76.8119 18.6353 76.2058 19.2414 76.2058 19.9891C76.2058 20.7368 76.8119 21.3429 77.5596 21.3429Z" fill="black"/>
<path d="M81.2882 24.4586C82.0359 24.4586 82.642 23.8525 82.642 23.1048C82.642 22.3571 82.0359 21.751 81.2882 21.751C80.5405 21.751 79.9344 22.3571 79.9344 23.1048C79.9344 23.8525 80.5405 24.4586 81.2882 24.4586Z" fill="black"/>
</g>
<defs>
<clipPath id="clip0_644_128">
<rect width="100" height="100" fill="white" transform="translate(10.284 10.0801)"/>
</clipPath>
</defs>
</svg>
