<svg width="30" height="30" viewBox="0 0 30 30" fill="none" xmlns="http://www.w3.org/2000/svg">
<path d="M1.5 4.75C1.875 4.625 2.375 4.5 2.75 4.5H27.125C27.625 4.5 28 4.625 28.375 4.75C24.5 8.625 20.625 12.375 16.75 16.25C15.75 17.375 13.875 17.375 12.875 16.25C9.25 12.375 5.375 8.5 1.5 4.75Z" fill="white"/>
<path d="M0.25 6C3.25 9 6.375 12 9.375 15C6.375 18 3.25 21 0.25 24C0.125 23.75 0.125 23.375 0 23.125V6.875C0 6.625 0.125 6.125 0.25 6Z" fill="white"/>
<path d="M20.625 15C23.625 12 26.75 9 29.75 6C29.875 6.25 29.875 6.625 30 6.875V23C29.875 23.375 29.875 23.625 29.75 24C26.75 21 23.625 18 20.625 15Z" fill="white"/>
<path d="M1.5 25.25C4.5 22.25 7.625 19.25 10.625 16.25C11.5 17 12.125 18 13.25 18.5C14.625 19.125 16.5 18.875 17.75 18C18.375 17.5 18.875 16.875 19.5 16.375C22.5 19.375 25.625 22.375 28.625 25.375C28.25 25.5 27.75 25.625 27.375 25.625C19.625 25.625 11.875 25.625 4.125 25.625C3.125 25.5 2.25 25.625 1.5 25.25Z" fill="white"/>
</svg>
