<svg width="94" height="36" viewBox="0 0 94 36" fill="none" xmlns="http://www.w3.org/2000/svg">
<path fill-rule="evenodd" clip-rule="evenodd" d="M0 21.2078H8.6276V27.9646H19.3308V0.255293H27.9596V29.5027C27.9596 30.1878 27.9174 30.8614 27.8309 31.5256C27.5344 33.786 25.7257 35.5804 23.4422 35.8713C22.7743 35.9571 22.0905 36 21.402 36H6.55734C5.86555 36 5.18407 35.9571 4.51703 35.8713C2.23187 35.5805 0.423974 33.786 0.12988 31.5256C0.0421488 30.8614 0 30.1878 0 29.5027L0 21.2078ZM54.6251 0.255293L47.0761 23.3453L39.5237 0.255293H30.375L42.0267 35.7425H52.1223L63.7739 0.255293H54.6251ZM93.375 21.9762H84.7443V27.9645H74.0433V8.03773H84.7443V14.0243H93.375V6.49929C93.375 5.81471 93.3293 5.13929 93.2428 4.47724C92.9469 2.21375 91.1408 0.422476 88.8574 0.128702C88.1871 0.0429398 87.5076 0 86.8138 0H71.9728C71.2814 0 70.5995 0.0429398 69.9328 0.128702C67.6493 0.422476 65.8409 2.21387 65.5438 4.47724C65.4572 5.13929 65.4127 5.81471 65.4127 6.49929V29.5026C65.4127 30.1876 65.4572 30.8613 65.5438 31.5255C65.8408 33.7859 67.6493 35.5802 69.9328 35.8712C70.5995 35.957 71.2814 35.9999 71.9728 35.9999H86.8138C87.5074 35.9999 88.187 35.957 88.8574 35.8712C91.1409 35.5804 92.9469 33.7859 93.2428 31.5255C93.3293 30.8613 93.375 30.1876 93.375 29.5026V21.9762Z" fill="white"/>
</svg>
