<svg width="200" height="78" viewBox="0 0 200 78" fill="none" xmlns="http://www.w3.org/2000/svg">
<g clip-path="url(#clip0_644_213)">
<path fill-rule="evenodd" clip-rule="evenodd" d="M0.400024 46.0578H18.8056V60.4723H41.639V1.35908H60.0471V63.7536C60.0471 65.215 59.9572 66.6522 59.7726 68.069C59.1401 72.8913 55.2815 76.7192 50.41 77.3399C48.9853 77.5229 47.5264 77.6145 46.0576 77.6145H14.389C12.9132 77.6145 11.4594 77.5229 10.0363 77.3399C5.16136 76.7195 1.3045 72.8913 0.677102 68.069C0.489942 66.6522 0.400024 65.215 0.400024 63.7536L0.400024 46.0578ZM116.934 1.35908L100.829 50.6178L84.7173 1.35908H65.2L90.0571 77.0651H111.594L136.451 1.35908H116.934ZM199.6 47.6969H181.188V60.4721H158.359V17.9616H181.188V30.733H199.6V14.6796C199.6 13.2192 199.503 11.7783 199.318 10.3659C198.687 5.53712 194.834 1.71574 189.962 1.08902C188.533 0.906058 187.083 0.814453 185.603 0.814453H153.942C152.467 0.814453 151.012 0.906058 149.59 1.08902C144.719 1.71574 140.861 5.53737 140.227 10.3659C140.042 11.7783 139.947 13.2192 139.947 14.6796V63.7534C139.947 65.2148 140.042 66.6519 140.227 68.0688C140.86 72.8911 144.719 76.719 149.59 77.3397C151.012 77.5226 152.467 77.6142 153.942 77.6142H185.603C187.083 77.6142 188.532 77.5226 189.962 77.3397C194.834 76.7192 198.687 72.8911 199.318 68.0688C199.503 66.6519 199.6 65.2148 199.6 63.7534V47.6969Z" fill="#FE0100"/>
</g>
<defs>
<clipPath id="clip0_644_213">
<rect width="199.2" height="76.8" fill="white" transform="translate(0.400024 0.814453)"/>
</clipPath>
</defs>
</svg>
