<svg width="125" height="48" viewBox="0 0 125 48" fill="none" xmlns="http://www.w3.org/2000/svg">
<g clip-path="url(#clip0_644_225)">
<path fill-rule="evenodd" clip-rule="evenodd" d="M0 28.2771H11.5035V37.2862H25.7744V0.34039H37.2794V39.337C37.2794 40.2504 37.2232 41.1486 37.1078 42.0341C36.7126 45.048 34.3009 47.4405 31.2563 47.8284C30.3658 47.9428 29.454 48 28.536 48H8.74312C7.82073 48 6.91209 47.9428 6.0227 47.8284C2.97583 47.4406 0.565299 45.048 0.173173 42.0341C0.0561984 41.1486 0 40.2504 0 39.337L0 28.2771ZM72.8335 0.34039L62.7681 31.1271L52.6983 0.34039H40.5L56.0357 47.6567H69.4964L85.0318 0.34039H72.8335ZM124.5 29.3016H112.992V37.286H98.7243V10.717H112.992V18.6991H124.5V8.66571C124.5 7.75295 124.439 6.85239 124.324 5.96965C123.929 2.95166 121.521 0.563302 118.477 0.171603C117.583 0.0572531 116.677 0 115.752 0H95.9637C95.0419 0 94.1327 0.0572531 93.2437 0.171603C90.1991 0.563302 87.7879 2.95182 87.3917 5.96965C87.2763 6.85239 87.2169 7.75295 87.2169 8.66571V39.3368C87.2169 40.2502 87.2763 41.1484 87.3917 42.034C87.7878 45.0479 90.1991 47.4403 93.2437 47.8283C94.1327 47.9426 95.0419 47.9999 95.9637 47.9999H115.752C116.677 47.9999 117.583 47.9426 118.477 47.8283C121.521 47.4405 123.929 45.0479 124.324 42.034C124.439 41.1484 124.5 40.2502 124.5 39.3368V29.3016Z" fill="#FE0100"/>
</g>
<defs>
<clipPath id="clip0_644_225">
<rect width="124.5" height="48" fill="white"/>
</clipPath>
</defs>
</svg>
